<?xml version="1.0" encoding="UTF-8" standalone="no"?>
<svg
   xmlns:dc="http://purl.org/dc/elements/1.1/"
   xmlns:cc="http://creativecommons.org/ns#"
   xmlns:rdf="http://www.w3.org/1999/02/22-rdf-syntax-ns#"
   xmlns:svg="http://www.w3.org/2000/svg"
   xmlns="http://www.w3.org/2000/svg"
   xmlns:sodipodi="http://sodipodi.sourceforge.net/DTD/sodipodi-0.dtd"
   xmlns:inkscape="http://www.inkscape.org/namespaces/inkscape"
   inkscape:version="1.1-dev (f9311a1, 2019-12-25)"
   height="609.78003"
   width="655.03998"
   sodipodi:docname="mapa.svg"
   id="svg840"
   version="1.1"
   viewBox="700 150 655.03998 609.78003">
  <metadata
     id="metadata844">
    <rdf:RDF>
      <cc:Work
         rdf:about="">
        <dc:format>image/svg+xml</dc:format>
        <dc:type
           rdf:resource="http://purl.org/dc/dcmitype/StillImage" />
        <dc:title></dc:title>
      </cc:Work>
    </rdf:RDF>
  </metadata>
  <sodipodi:namedview
     inkscape:current-layer="svg840"
     inkscape:window-maximized="0"
     inkscape:window-y="23"
     inkscape:window-x="0"
     inkscape:cy="305.59"
     inkscape:cx="470.52"
     inkscape:zoom="0.909"
     fit-margin-bottom="0"
     fit-margin-right="0"
     fit-margin-left="0"
     fit-margin-top="0"
     showgrid="false"
     id="namedview842"
     inkscape:window-height="998"
     inkscape:window-width="1648"
     inkscape:pageshadow="2"
     inkscape:pageopacity="0"
     guidetolerance="10"
     gridtolerance="10"
     objecttolerance="10"
     borderopacity="1"
     inkscape:document-rotation="0"
     bordercolor="#666666"
     pagecolor="#ffffff" />
  <defs
     id="defs835">
    <style
       id="style833">
      .cls-1 {
        fill: #ebeef2;
      }

      .cls-2, .cls-24, .cls-25, .cls-26, .cls-5, .cls-9 {
        fill: none;
      }

      .cls-2 {
        stroke: #110c35;
        stroke-width: 3px;
      }

      .cls-2, .cls-9 {
        stroke-miterlimit: 10;
      }

      .cls-12, .cls-14, .cls-16, .cls-22, .cls-23, .cls-3 {
        fill: #110c35;
      }

      .cls-27, .cls-29, .cls-30, .cls-31, .cls-4 {
        fill: #fff;
      }

      .cls-5 {
        stroke: #cbccd6;
      }

      .cls-24, .cls-25, .cls-26, .cls-5 {
        stroke-linejoin: round;
      }

      .cls-18, .cls-19, .cls-6 {
        fill: #ff8f57;
      }

      .cls-20, .cls-21, .cls-7 {
        fill: #b00064;
      }

      .cls-15, .cls-17, .cls-8 {
        fill: #ffca38;
      }

      .cls-9 {
        stroke: #7e7d93;
        stroke-width: 0.75px;
      }

      .cls-10 {
        font-size: 10px;
      }

      .cls-10, .cls-11 {
        fill: #7e7d93;
      }

      .cls-10, .cls-11, .cls-14, .cls-16, .cls-22, .cls-23, .cls-30, .cls-31 {
        font-family: Barlow-Regular, Barlow;
      }

      .cls-11, .cls-22 {
        font-size: 20px;
      }

      .cls-12, .cls-14, .cls-29, .cls-30 {
        font-size: 16px;
      }

      .cls-12, .cls-17, .cls-19, .cls-21, .cls-29 {
        font-family: Barlow-SemiBold, Barlow;
        font-weight: 600;
      }

      .cls-13 {
        fill: #a9aab9;
      }

      .cls-15, .cls-18, .cls-20 {
        font-size: 32px;
        font-family: Barlow-Medium, Barlow;
        font-weight: 500;
      }

      .cls-16 {
        font-size: 14px;
      }

      .cls-23 {
        font-size: 40px;
      }

      .cls-24 {
        stroke: #ffca38;
      }

      .cls-24, .cls-25, .cls-26 {
        stroke-linecap: round;
        stroke-width: 2px;
      }

      .cls-25 {
        stroke: #ff8f57;
      }

      .cls-26 {
        stroke: #b00064;
      }

      .cls-27 {
        font-size: 28.07px;
        font-family: Barlow-Bold, Barlow;
        font-weight: 700;
      }

      .cls-28 {
        fill: #ff9757;
      }

      .cls-31 {
        font-size: 18.35px;
      }
    </style>
  </defs>
  <g
     transform="translate(-29.48,-19.41)"
     data-name="&lt;Layer&gt;"
     id="_Layer_">
    <path
       inkscape:connector-curvature="0"
       d="m 770.57,262.59 -0.07,0.07 -0.34,-0.32 h -0.46 l -0.39,0.34 -0.86,0.2 -0.56,0.38 -0.43,-0.17 -0.15,-0.73 0.39,-1.14 0.45,-0.36 v -0.34 l -0.31,-0.6 0.44,-0.27 h 0.91 l 1.4,0.61 0.21,0.43 -0.19,0.46 0.21,0.31 z m -35.21,9 v -1.65 -0.44 -0.57 -0.37 l -0.26,-0.89 -0.8,-0.82 -0.91,-0.5 1.57,-0.16 0.57,-0.52 0.59,-0.53 1.29,0.58 1.07,0.15 1.07,-0.23 0.33,0.15 0.32,0.13 0.17,0.06 2.24,0.87 1.3,0.17 1.29,-0.16 2.33,-0.61 2,-0.88 2.12,-1.49 0.74,-0.78 1.33,-1.42 0.7,-0.55 h 0.82 l 1.75,-0.67 1.77,-1.06 3.56,-1.27 1.51,-0.81 0.62,-0.21 1.77,-0.6 1.06,-0.78 1.19,-0.6 1.56,0.12 1,-0.31 0.3,0.08 v 0.84 l -0.22,0.36 -1.25,0.24 -1,0.35 -0.93,1 -0.38,-0.47 -0.42,0.05 -0.23,0.17 -0.15,0.11 -0.06,0.71 0.4,0.71 -0.14,0.56 0.18,0.82 -0.85,2.12 0.41,1.24 v 0.36 l -0.57,0.76 -0.56,0.42 -0.29,0.79 -0.41,0.29 v 0.62 l -1.1,0.51 -0.65,0.78 -0.56,1.59 -0.52,0.82 -0.31,1.12 0.35,1.14 v 0.13 l -0.05,0.33 -0.12,0.77 v 0.06 l -0.24,0.73 -0.5,0.35 -0.83,0.14 -0.07,0.59 -0.3,0.47 v 0.34 l 0.24,0.41 -0.31,0.64 -0.36,-0.11 -0.27,-0.32 L 759,277 h -0.29 v -1.06 l -0.24,-0.38 h 0.73 l 0.34,-0.51 -0.09,-0.24 -0.42,-1.11 -0.3,-0.27 -0.93,-0.25 -0.71,-0.43 -0.49,0.05 -0.39,-0.38 -0.87,0.28 -0.65,-0.07 -0.55,-0.32 -1.94,-0.56 h -0.89 l -1.63,0.36 -0.77,-0.6 -0.05,-0.51 0.22,-0.58 -0.08,-0.32 -0.1,-0.37 -0.68,-0.72 -0.46,-0.23 -1.69,0.16 -0.45,0.6 -0.1,0.69 -0.63,0.23 -0.12,0.2 0.18,0.19 0.57,0.13 0.57,-0.36 0.6,0.78 -0.26,0.47 -1,0.85 -0.55,-0.12 -0.86,-1.36 -0.65,-0.35 h -0.39 -0.62 l -0.63,0.23 -1.41,1.27 -0.4,-0.23 -0.06,-2 -0.24,-0.6 -1.31,-1 -0.43,-0.1 h -0.1 l -0.28,0.12 -0.19,0.08 v 0 0 0 l 0.95,1 0.87,1.07 0.59,2.34 h 1 l 1.37,-0.92 0.23,-0.67 0.83,-0.23 0.35,0.73 0.93,0.76 1.32,0.25 0.32,-0.18 0.34,0.15 v 0.79 l -0.25,0.46 -0.27,0.16 h -0.46 l -0.38,0.25 -0.35,-0.08 -0.29,0.12 -0.24,0.33 h -0.2 l -0.27,0.19 -0.19,0.36 -0.08,0.68 v 0.11 l 0.16,0.85 -0.26,0.41 -0.56,-0.29 h -0.53 l 0.23,-0.39 -0.15,-0.29 -0.54,-0.28 -1.75,-0.2 -0.68,-0.47 -2.79,-3.44 z m 12.19,0.53 -1.18,0.62 -0.34,-0.39 0.82,-0.56 0.75,-0.12 0.09,0.06 z m 0.21,0 0.54,-0.18 0.13,0.42 -0.11,0.32 0.25,0.39 -0.26,0.81 -1.61,0.83 h -0.28 l 0.32,-1.31 -0.11,-0.66 z m 27.67,312.05 0.69,0.42 0.41,0.06 0.46,0.06 0.61,-0.15 0.65,-1 0.73,0.23 0.9,0.63 0.34,-0.71 1.38,0.4 2.11,0.89 h 0.87 l 0.88,-0.46 1,-0.17 0.37,-0.37 v -0.4 l -0.33,-1.94 0.43,-1.25 -0.11,-0.3 -1,-0.84 -0.14,-0.62 0.52,-0.2 0.57,-0.46 1.11,-1.48 -0.31,-1.83 0.11,-0.32 0.51,-0.37 -0.68,-1.16 -0.18,-0.7 h -0.55 -0.35 l -0.51,0.33 h -0.5 L 785,572 l -0.09,-0.12 1.06,-2.06 0.85,-0.21 h 0.22 l 0.37,-0.08 0.14,-0.13 v -0.09 l 0.08,-0.77 0.33,-0.26 0.43,-0.35 0.1,-0.09 v 0.42 l 0.25,0.27 v 0.06 0 l 0.16,0.72 -0.09,0.3 0.09,0.16 0.13,0.25 v 0 l 1.36,-0.49 0.26,-0.85 v -0.08 l 1.14,0.83 1.44,0.09 0.26,0.22 -0.57,0.87 0.09,0.45 0.39,0.3 2.09,0.68 0.5,-0.4 -0.56,-0.57 0.51,-1.33 0.44,-0.31 1.59,-0.42 0.12,0.61 v 0.2 2.74 l 0.44,0.32 0.66,0.2 0.33,-0.37 0.09,-0.55 2.32,-0.9 0.29,-0.12 v 0.14 l 0.3,1.3 0.21,0.19 0.23,0.2 1.43,0.09 0.34,0.57 v 0.84 0.05 l 0.17,0.34 0.33,0.23 0.4,0.4 0.22,0.23 -0.48,0.88 -0.52,0.6 -0.5,0.58 -0.27,1.5 0.73,2 0.09,0.44 -0.1,0.45 1.3,1.67 0.75,1.34 1,0.31 1.08,0.66 0.66,0.41 0.15,0.09 0.53,0.69 0.59,2.12 -0.11,1.16 -0.29,1 0.46,0.89 0.06,1 0.06,0.16 0.09,0.2 0.34,0.23 0.07,0.06 0.87,0.25 0.14,-0.19 0.29,-0.41 0.76,-0.83 0.4,-0.79 0.15,-1 0.8,-0.74 0.22,-0.08 0.22,-0.09 0.43,0.08 0.4,1.18 0.68,0.27 0.34,0.53 1.08,0.7 0.53,0.09 0.83,-0.21 0.32,0.09 0.8,1.08 1.19,-0.26 1,0.13 0.44,0.3 1.32,-0.16 h 0.24 l 1.24,0.18 0.66,0.37 1.15,1.13 1.38,0.15 1.45,0.54 0.49,0.4 -0.1,0.69 0.12,0.18 0.95,0.57 1.66,-0.08 0.78,0.43 0.47,-0.54 0.22,-0.12 0.56,-0.31 0.65,-0.08 0.47,0.25 h 0.55 l 0.55,-0.5 0.26,-0.57 0.36,-0.18 0.56,0.05 0.49,0.23 0.37,0.43 0.43,0.92 v 1.25 l 0.64,1.14 0.33,0.41 0.47,0.25 0.68,2.51 0.12,0.43 v 0.89 l 1.29,0.3 0.38,-0.57 1.65,-0.59 0.63,-0.09 0.82,-0.52 1.58,-0.49 h 0.94 l 0.88,0.49 0.1,0.29 0.33,1 0.5,2.26 0.08,0.38 -0.08,0.33 -0.28,2.27 -0.51,1.13 0.07,0.09 0.15,0.22 0.52,0.54 h 0.05 L 853,612 l 1,0.17 0.94,-0.82 0.64,0.29 0.32,-0.42 0.2,-1.33 0.5,-1.29 1.2,-1.08 0.29,-0.5 0.38,-0.66 0.77,0.12 h 0.57 0.33 l 0.76,0.58 h 0.6 l 0.55,0.23 0.78,0.8 0.81,1 0.73,1 0.9,-0.59 0.73,-0.09 0.32,-0.42 0.2,-0.26 0.12,-1.32 0.36,-1.41 0.57,-0.76 0.92,0.1 1.17,0.38 1.07,0.69 h 1.12 l 1.08,-0.37 1,0.17 1,0.54 0.47,1.31 1.24,0.91 1.29,1.88 1.52,1.32 1.14,1.3 0.63,1.44 -0.05,0.77 h -0.83 l -1.07,0.37 -0.62,-0.15 -0.26,0.27 0.12,1 0.25,0.79 v 0 l -0.11,0.15 -0.34,0.45 -0.6,0.61 0.15,0.52 -0.16,1.09 -1.15,0.92 -0.73,1.31 -0.9,0.58 -1.22,-0.22 -1.16,-0.83 -0.63,0.31 -0.08,0.55 0.49,0.32 0.12,0.36 -0.6,0.54 -1.41,0.65 -0.84,-0.19 -0.19,0.86 h -0.59 l -0.43,0.21 0.27,0.34 -0.12,0.25 -0.46,-0.17 -0.16,0.56 -0.75,-0.05 -0.45,0.59 0.26,0.81 0.42,0.32 -0.18,0.4 h -0.66 l -0.6,-0.53 h -0.66 v 0 l -0.42,0.66 0.1,0.75 v 0.15 l 0.09,0.14 0.23,0.32 0.41,0.58 0.34,1.48 0.62,0.15 0.47,-0.37 0.68,0.05 0.48,0.78 -0.18,0.94 0.68,0.06 0.55,0.76 -0.19,0.25 0.22,0.59 0.49,0.31 0.46,0.7 1.76,-1.38 h 2.09 l 1.18,0.52 0.38,1.17 -0.11,0.93 0.14,1 0.91,1.33 0.74,1.12 1.05,0.08 h 0.78 1.08 l 0.36,0.33 1,1.78 0.72,0.81 0.24,0.86 v 0 l 0.25,0.35 0.66,0.5 0.68,1.27 0.42,0.44 0.76,0.32 0.66,1.77 0.51,0.36 H 887 l 0.21,0.22 1.11,1.17 0.15,0.51 -0.11,0.45 0.46,0.81 -0.24,0.6 -0.1,1.29 0.4,1.09 -0.16,1.39 0.19,0.41 1.33,1.1 0.11,0.3 -0.35,0.76 0.24,0.36 1.56,0.63 0.51,1.08 0.76,0.81 0.52,0.54 h 1.18 l 1.16,1 0.58,0.1 h 0.09 0.16 0.17 l 0.81,0.14 0.25,-0.08 0.61,-0.19 1,-1.8 0.89,-1.79 1.18,-0.08 0.92,-1 0.93,-1.49 0.51,-1.89 0.27,-0.49 0.39,-0.74 1,-0.13 0.18,-0.94 0.52,-0.6 0.75,-0.55 0.41,0.32 0.3,0.65 1,0.33 0.47,-0.44 0.37,-0.58 0.44,-1.35 1,-0.52 0.88,-0.11 0.27,0.06 1,0.23 0.92,-0.35 0.34,-0.27 -0.18,-0.89 0.6,-0.53 0.49,-0.22 0.49,0.93 0.42,1.09 0.84,0.81 0.86,-0.26 0.3,-0.57 0.3,-0.65 -0.86,-1.57 -0.44,-1.16 0.47,-0.44 0.4,-1 -0.32,-2 -0.7,-0.9 -2,-1 -1.63,-0.56 -0.89,-1.25 v -0.76 l 0.06,-0.77 -0.74,-1.2 -0.37,-1.18 0.11,-0.93 -0.46,-1.38 -1,-0.72 -1.56,-1.17 -0.52,-0.62 0.18,-0.35 0.9,-1.77 0.41,-1 0.75,-0.56 1.17,-0.15 0.26,0.21 0.4,0.32 0.95,0.49 1.54,1 1.87,0.67 h 0.46 l 1.56,0.1 0.68,0.68 0.45,0.63 0.23,0.12 0.78,-0.4 0.88,0.57 h 0.9 l 1.24,-0.23 0.53,0.7 -0.09,0.54 0.12,0.37 h 1 l 1,1.09 0.49,-0.21 0.4,0.25 0.67,-0.62 0.56,0.32 0.42,-0.28 0.94,-0.19 h 0.07 l 0.4,0.87 -0.45,-0.1 -0.11,0.12 -0.35,0.39 v 0.39 l 0.06,0.07 1.3,1.36 1.33,1.21 3.19,2.5 1.45,0.36 2,-0.7 0.92,-0.42 0.47,0.25 0.34,0.34 -0.93,0.27 -0.81,0.09 v 0.31 l 0.58,0.46 0.75,0.07 0.13,0.23 0.05,0.09 0.1,0.17 -0.12,0.43 -0.25,0.91 -0.46,1.2 0.26,1.57 0.7,0.29 0.28,0.5 0.38,0.11 0.12,-0.25 -0.23,-0.73 v -1 l 0.41,-0.28 1.37,-0.24 v 0 l 1,-0.35 0.46,0.09 0.26,0.28 v 0.17 0.2 l -0.35,0.15 -0.15,0.06 -0.62,0.38 0.13,0.25 0.05,0.11 0.56,-0.29 0.85,0.28 0.25,0.88 V 649 l 0.46,0.1 0.88,-0.11 0.4,-1 0.3,-0.64 1.31,-0.23 2,-0.46 h 0.06 l 1.54,0.42 2.14,-0.1 0.93,-0.34 0.55,-0.12 h 0.17 l 0.44,0.63 0.43,0.48 0.51,-0.06 0.49,-0.29 0.77,-0.39 1.44,-0.39 0.71,-1 0.86,-0.86 0.66,-0.77 -0.07,-0.41 -0.13,-0.78 -0.21,-1.19 0.33,-0.35 0.79,0.53 0.18,0.12 1.18,0.63 0.8,1.2 1.12,0.1 0.12,0.25 0.06,0.14 0.12,0.26 -0.17,0.47 -0.52,0.67 -0.72,1.61 -0.18,0.88 -0.07,0.27 0.35,1.18 0.36,0.49 1,0.64 0.31,0.8 -0.12,1.61 -0.09,1.23 -1.21,0.44 -0.38,-0.11 -0.7,-0.29 -0.5,0.13 -0.41,1 v 0.69 l -0.18,0.4 -0.76,0.39 -0.68,-0.07 -0.62,-0.23 -0.82,0.62 -0.94,0.19 -0.54,0.44 -1.83,0.22 -1.08,0.28 -0.13,0.77 0.21,0.59 0.59,0.69 0.83,0.74 1.67,1.1 0.33,0.95 0.85,1 1,0.26 0.27,-0.25 v -0.39 l 0.78,-0.09 h 0.17 l 0.12,0.1 0.61,0.5 1.4,0.6 0.53,0.16 v 0.31 0.22 l 0.22,0.66 0.37,0.88 0.15,0.36 0.37,0.28 0.1,0.51 0.06,0.27 0.31,0.3 v 0.46 l 0.63,1 0.26,0.79 v 0.65 l 0.37,0.78 v 0.56 l 0.27,0.62 1,0.51 0.27,0.62 0.69,0.47 0.13,0.25 0.41,0.82 0.91,0.8 1.41,0.52 0.43,0.35 0.37,0.07 0.77,0.16 0.87,-0.18 h 0.82 0.35 l 1.05,-0.5 0.82,-0.63 1.29,-1 0.39,-0.31 0.76,-0.59 0.75,-0.62 0.53,-0.59 h 0.36 l 0.56,0.39 0.47,0.39 0.09,0.08 0.87,0.52 h 1 l 0.21,-0.78 v -1 -0.83 l -0.12,-0.42 -0.11,-0.39 h -1.17 l -0.56,0.29 -0.42,0.28 -0.4,-0.34 v -0.68 l 0.29,-1.4 0.62,-0.45 0.64,-0.23 0.88,-0.1 0.58,0.51 1.53,1.31 0.75,0.15 0.09,0.14 v 0 l -0.06,0.87 0.18,0.28 0.47,0.26 0.32,0.19 v 0.61 l -0.14,0.85 0.15,0.67 0.54,0.52 0.42,0.41 v 0 l 0.69,0.3 0.57,-0.21 0.35,0.57 0.46,0.18 0.26,0.35 0.46,0.18 0.54,-0.44 -0.26,-0.43 0.3,-0.64 0.35,-0.29 0.4,-0.32 0.58,-0.07 0.33,0.1 0.43,0.12 0.25,0.17 0.23,0.16 0.3,0.8 V 678 l 0.31,0.87 0.79,0.45 0.56,-0.21 h 0.88 l 1.45,0.45 0.21,0.66 0.19,1.12 v 1.21 l 1.13,0.94 1.18,0.73 0.07,0.05 h 0.07 l 0.52,-0.19 0.6,-0.68 0.66,-0.34 0.09,-0.05 v 0 l -0.34,-0.5 -0.66,-0.72 0.08,-0.37 h 0.32 0.45 l 0.48,0.05 0.64,0.63 h 0.08 0.08 l 1.65,0.29 h 0.16 l 1.5,0.07 0.33,0.25 0.58,0.44 1.69,0.84 1.58,1.06 0.52,0.27 0.67,0.34 1.33,-0.09 1,-0.15 0.44,-0.83 0.27,-1.25 0.33,-0.14 0.55,0.53 0.72,-0.1 0.4,0.06 0.44,1.23 -0.48,2.11 -0.14,0.61 -0.24,1 0.15,0.62 0.25,0.23 0.65,-0.15 0.58,-0.13 0.52,0.3 0.08,0.58 -0.58,0.85 -0.81,1.05 -0.07,0.11 -0.39,0.65 0.06,0.7 v 0.11 l 0.74,1.21 0.19,0.3 0.29,0.67 0.39,0.9 0.67,1.53 0.32,0.72 0.18,0.65 0.41,1.39 v 0.11 l 0.25,0.87 v 0.12 l 0.18,0.59 v 0.35 l -0.05,0.38 v 0.36 l 0.19,1.28 0.15,0.48 0.35,1.08 0.11,0.33 v 0.08 l 0.32,0.49 h 0.09 0.07 l 0.51,0.17 v 0 l -0.16,-1.24 -0.1,-0.79 h 1.13 l 0.32,0.23 0.39,0.27 0.43,-0.12 0.41,-0.31 0.71,0.19 0.46,0.64 0.38,1.25 0.61,0.62 0.89,0.56 0.58,-0.06 0.91,-0.44 1,-0.25 0.38,0.15 0.84,0.37 0.66,0.47 0.28,0.61 0.1,1.1 0.29,1.45 0.26,1.27 0.27,1.33 0.2,1.35 v 1.18 l 0.19,0.89 0.2,0.59 0.19,1.19 0.4,0.8 0.56,0.82 0.16,0.24 0.29,0.77 -0.2,0.59 -0.47,0.46 -0.24,0.56 0.06,0.6 0.18,0.44 v 0 l -0.37,0.18 h 0.6 l 1.16,-0.11 0.56,0.25 1.23,0.17 1.5,-0.3 1.34,-0.09 1.06,0.54 0.6,0.55 0.25,0.69 -0.53,1.42 v 0.76 l 0.36,1.18 -0.24,0.93 0.15,0.9 0.57,0.7 0.22,0.7 0.65,1.18 -0.81,1.11 -0.21,1.31 0.43,0.72 0.49,0.25 h 0.55 l 0.71,-0.22 0.67,0.16 0.77,0.15 0.88,-0.31 0.74,-1.52 h 0.87 l 0.75,-0.53 0.92,0.1 0.53,0.7 h 0.47 l 0.67,0.55 0.6,0.17 0.66,-0.37 0.5,-0.47 0.41,0.11 h 1.09 l 0.72,-0.52 0.59,0.13 0.46,-0.08 0.21,-1.35 -0.35,-0.69 0.39,-1.28 0.75,-0.61 h 0.69 l 0.48,-1.14 -0.35,-1.07 0.6,-2.29 0.49,-0.58 -0.13,-1.13 0.63,-0.67 0.63,-0.7 0.54,-0.92 0.93,-0.21 0.75,-0.18 h 0.44 l 1,-0.2 0.56,0.13 0.55,0.48 0.88,-0.38 0.8,-0.35 0.76,-0.14 0.34,-2 0.24,-0.93 1.16,-0.56 0.83,-0.5 0.36,-1.32 0.52,-0.31 1.1,-0.33 1,-0.32 0.91,-0.09 0.49,0.3 0.39,0.69 0.61,0.74 0.94,0.36 0.85,0.54 0.72,0.76 0.37,1.3 0.43,2.61 0.52,1.32 0.29,1 0.62,2.11 1,2.19 0.78,1.06 0.42,-0.11 0.43,0.26 0.28,0.77 0.38,0.69 0.74,0.16 0.52,-0.42 0.52,-0.28 0.18,1.27 0.46,1.21 -0.66,1.65 -0.31,0.71 1.47,0.25 1.17,0.14 1.47,0.16 1.08,0.73 0.34,0.66 0.77,-0.37 0.66,-0.82 0.51,-0.88 1.42,-0.43 0.82,0.23 0.69,0.55 0.08,1 -0.12,0.9 0.55,1.71 0.25,1.27 -0.29,1 0.11,1.35 0.41,1.41 -0.36,1 -0.29,1 0.06,0.83 0.74,0.16 0.48,0.56 0.37,1 -1.3,1 -0.73,0.82 -0.2,1.15 -0.92,1.15 -0.36,1 -0.06,1 -0.22,0.86 0.21,0.81 1,0.3 0.63,0.55 0.49,-0.2 0.55,-0.35 0.66,0.17 0.45,0.19 0.59,0.1 0.61,0.4 0.7,-0.29 0.94,-0.09 0.48,-0.26 1,-0.77 0.65,-1 0.5,-1 1.37,-0.95 h 1.52 l 1,0.37 h 1.23 l 0.72,0.86 0.68,0.32 0.27,0.73 0.29,1 0.69,0.55 1.2,0.58 1.22,0.89 1,0.51 0.63,-0.28 v -0.68 l -0.25,-1.42 0.37,-0.86 0.44,-0.8 0.5,-1 -0.28,-0.69 -0.06,-1 0.19,-1.23 0.71,-1.06 0.67,-1.71 0.39,-1.55 0.54,-1.48 0.6,-0.73 0.59,1.16 1,-0.68 0.07,-0.92 0.91,-1.44 0.31,-0.71 1.2,-0.47 0.46,-0.57 0.82,0.31 0.93,-0.15 0.93,-0.15 0.53,0.25 0.86,-0.14 0.59,0.06 0.65,0.07 1,0.22 0.48,-0.42 0.22,-0.85 0.08,-1 -0.1,-1.35 0.08,-0.85 -0.26,-0.66 0.27,-0.77 0.81,-0.22 1.15,0.74 0.71,-0.13 0.43,-0.19 0.51,0.11 0.06,0.76 1.19,0.43 0.88,-0.38 0.47,-0.79 0.41,-0.55 0.63,0.77 0.14,-0.82 -0.24,-1 0.76,0.13 0.43,-0.37 1.18,0.19 0.67,0.25 0.48,0.65 0.83,0.46 0.9,0.31 1.54,1.25 1.49,0.56 0.82,0.32 0.63,-0.2 0.63,-0.42 h 0.66 l 0.27,-1.3 0.67,-0.74 -0.19,-0.66 0.46,-0.72 0.6,0.26 0.33,0.66 h 0.73 l 0.62,0.56 0.78,-0.29 1,-0.68 1.18,-0.78 h 0.65 l 0.62,-1 0.25,0.77 -0.27,0.83 1.23,0.44 0.15,1 0.72,0.2 -0.55,0.94 0.78,1.06 v 1 l 0.73,0.32 0.92,-0.27 -0.32,0.88 0.61,0.28 0.67,-0.25 0.47,0.5 -0.43,0.69 0.36,0.75 h 0.64 l 0.79,1.15 0.91,-0.12 1.49,-1.3 0.67,0.06 0.68,-0.29 0.8,-0.42 0.45,0.42 -0.16,0.74 0.49,1 0.38,1.2 0.21,0.72 1,0.89 0.3,0.69 1.47,-0.79 1.12,-0.61 0.66,0.11 0.52,0.26 v -1.59 l 0.31,-0.78 0.7,-0.36 0.39,-0.86 0.1,-0.69 0.89,-0.81 1.23,-1.07 0.67,0.25 0.43,-0.1 h 0.43 0.51 l 0.64,-0.2 0.54,-0.56 0.18,-0.7 -0.46,-0.42 -0.79,-0.93 -0.83,-0.63 -0.57,-0.86 -0.48,-0.73 0.1,-0.76 0.62,-0.5 1.08,-0.15 1.14,-0.3 0.89,0.31 0.41,-0.48 0.76,-0.51 1.12,0.38 0.85,0.85 0.5,1 1.05,0.61 0.69,0.64 0.72,-0.13 h 0.58 l 0.52,-0.86 0.3,-1.08 -0.19,-0.67 0.55,-0.57 1.34,-0.54 1,-1 0.23,-0.85 0.5,-0.11 0.68,0.34 0.9,0.54 h 0.44 1.45 0.73 l 0.46,0.43 0.83,0.55 0.46,0.57 0.89,0.32 0.64,-0.26 0.64,-0.2 1.47,1.5 1,0.62 0.57,-0.11 0.57,-0.26 0.66,0.1 h 0.51 l 0.56,-0.42 0.67,-1 0.52,0.35 0.62,0.57 0.66,0.11 0.31,-0.93 0.69,-0.57 h 0.5 l 0.63,-0.49 0.48,-0.48 0.52,0.11 0.47,0.58 0.8,0.18 1.2,-0.68 1.34,-0.61 0.44,0.12 0.54,0.58 0.56,0.87 0.34,0.89 0.62,0.64 1.32,0.38 0.57,-0.22 h 0.87 l 1,0.32 0.05,1 1.23,1.13 0.82,0.64 0.47,0.5 0.12,0.82 0.28,1.27 0.74,0.26 0.45,0.36 0.29,-1.54 0.32,-0.69 0.56,-0.42 1,-0.59 1.06,-0.59 h 0.43 l 0.56,1 0.42,1 1.31,0.15 0.59,0.34 0.33,0.66 0.54,0.8 h 1 l 0.66,0.12 0.83,0.63 1.14,-0.22 0.6,0.27 0.39,0.73 0.61,2 1,1.69 1.23,1.37 0.83,0.63 0.4,0.81 v 0.68 0.69 l 0.4,0.66 v 0.85 l -0.11,0.74 0.09,1.81 0.77,1 0.89,0.33 2.19,0.63 0.9,0.63 h 2 l 0.25,0.66 0.33,0.82 0.79,0.11 1.25,0.39 0.44,0.28 0.74,0.34 0.69,-0.57 0.57,-0.25 0.58,0.19 0.56,1 -0.38,1.16 v 1 l 1.89,0.28 1.68,0.52 2,0.88 0.51,-0.38 0.89,-0.68 h 0.86 l 1.37,-0.07 0.55,1.11 0.61,0.65 0.71,1.47 0.7,1 0.81,0.41 h 0.72 1.15 1.08 l 0.68,0.65 0.67,0.5 0.51,0.2 0.7,-0.41 h 0.65 1.37 l 1.23,0.33 0.52,0.35 0.55,-0.63 0.78,-0.34 0.73,0.19 0.66,0.5 0.83,0.79 0.81,0.42 0.49,1.49 0.92,1.24 1.32,0.77 1.17,0.25 1.19,-0.81 0.64,-0.11 0.65,0.13 1,0.4 0.79,0.12 0.53,-0.66 0.5,-0.45 2,1.67 1.26,1.22 0.88,0.41 3.08,1.8 0.61,-0.83 -0.73,-1 0.08,-1.39 -0.56,-0.35 0.15,-1.2 -0.47,-1.44 -0.06,-1 0.39,-0.66 h 0.47 l 0.63,-1.39 -0.77,-0.24 -0.76,-0.17 -0.46,-0.33 v -0.79 l -0.6,-0.56 -1,0.32 -0.43,-0.78 -1,-1.16 -1,-0.66 -0.26,-1 -0.25,-1.09 -0.9,0.28 -0.59,-0.08 -0.71,0.16 -1,-0.59 0.13,-1.27 0.37,-0.73 0.16,-0.67 h -0.79 l -0.48,0.26 -0.51,0.63 -0.36,0.83 -0.49,-0.3 -0.12,-1.1 0.68,-1.17 0.42,-0.44 0.12,-0.89 1.1,-1.07 -0.84,-0.34 -0.29,-1.34 0.49,-0.55 0.25,-1.1 0.32,-0.99 0.2,-0.84 0.22,-0.71 0.24,-1.16 -0.11,-1 -0.41,-0.94 -0.31,-0.82 -0.21,-0.66 -0.15,-0.88 -0.12,-0.69 -0.11,-0.76 -0.08,-1 -0.21,-1 -0.12,-0.83 -0.11,-0.88 v -0.75 -1.17 -1.18 l -1.6,-3.24 -0.5,-1.57 0.2,-2.28 v -0.95 l -1.9,-4.33 -0.27,-1.28 0.59,-1.54 0.3,-1.67 0.55,-0.85 0.61,-0.94 2.89,-3.84 1.13,-1.35 1.19,-2.56 1,-2.82 0.61,-1.09 1.07,-0.76 1,-0.77 0.62,-0.47 0.71,-0.84 0.56,-1.41 1.2,-0.89 0.93,-0.64 0.23,-1.52 0.25,-1.11 v -1.1 l 0.22,-0.88 0.7,-0.51 0.52,-0.31 0.5,-0.36 0.52,-0.69 0.58,-1 0.7,-0.7 0.72,-0.44 0.87,-0.93 0.62,-0.69 1.76,-1.89 1.93,-2.54 0.44,-0.58 2.49,-3.66 1.92,-2.55 1.37,-1.81 0.65,-0.89 1.38,-1.89 2,-2.16 0.76,-1.14 0.24,-1.45 0.42,-0.69 0.86,-0.42 1.29,-1 0.86,-0.71 0.62,-1.16 0.31,-1 0.44,-0.58 1.38,-0.67 0.77,-1.09 2.75,-2.37 0.47,-0.46 1.34,-1.41 2.68,-3.73 0.91,-1.31 1.8,-1.43 1.72,-1.42 1,-0.81 0.45,-0.38 0.46,-0.39 1,-0.86 1.59,-1 0.93,-0.65 0.66,-0.46 0.51,-1.83 1.15,-1.77 2.75,-1.91 1.37,-1 0.35,-0.69 0.25,-1 0.34,-1.7 0.64,-1 0.42,-0.77 0.72,-0.7 0.88,-0.25 0.63,-1.08 0.73,-0.48 0.78,-0.23 0.91,-0.27 1.91,-0.51 2.6,0.38 2.08,0.32 1.08,0.06 1.81,0.09 1.83,-0.66 2,-0.81 1.94,-0.93 1.16,-1.16 1.15,-2.42 1.16,-5.89 0.65,-4.74 0.93,-3.69 0.24,-1.65 0.17,-1.38 -0.44,-0.29 -0.44,0.1 -0.31,-0.74 0.11,-1 -0.17,-1.1 -1,-0.82 -0.42,-1.17 -0.77,-1.29 0.41,-1.3 0.73,-0.53 -0.1,-0.88 -2,0.13 -0.56,-0.42 -0.41,-0.05 -0.22,-1.27 v -1.25 l -0.22,-0.81 0.42,-0.86 -1,-0.9 h -0.76 -1.08 l -0.45,-0.64 -0.52,-0.57 -0.18,-1.13 0.3,-1 1.48,-3.89 0.45,-0.05 1.74,0.17 0.73,-0.12 0.9,0.5 3.52,-0.19 1.1,-0.58 1.59,-1.41 0.26,-1.23 -0.55,0.07 -0.68,-0.28 -0.54,-0.1 -0.69,-0.45 -0.62,-0.47 -1.07,-1.07 -1.56,-0.21 -0.45,-0.54 -0.67,-0.74 -2.76,-2.59 -0.64,-1.33 -1.15,-1.14 -0.2,-2.13 -0.34,-1.1 -1,-1.57 -0.74,-0.52 -1,-0.33 0.21,-0.67 0.63,-0.12 -0.52,-0.41 -0.41,-1 0.52,-0.64 -0.44,-0.49 -0.48,-0.52 0.19,-0.79 -0.18,-0.82 v -1.12 l -0.48,-0.69 -1.29,-0.4 -1,-1.42 -0.56,-0.53 -0.05,-0.66 -0.67,-1.67 0.42,-1 0.71,0.07 -0.13,-1.5 -0.27,-0.84 -0.62,-0.21 -0.51,-0.57 h -0.47 l -0.48,0.1 -0.43,-0.4 -0.48,-0.81 -0.35,-0.82 -0.49,-0.56 -0.44,-0.42 -0.69,-0.12 -0.3,-0.85 -0.82,-0.24 -0.91,-0.59 -1,-0.71 0.13,-0.69 -0.36,-0.81 -0.58,-0.57 -0.21,-1.43 -0.15,-1.12 -0.54,-1.2 -0.5,0.15 -0.69,-0.64 -1,-0.34 -1.07,-1.16 -0.64,0.15 -0.45,-0.09 -0.14,-1.82 -0.56,-0.87 -0.16,-0.84 0.25,-1.17 1.07,-0.69 v -1.72 l 0.56,-0.68 0.76,-0.63 0.39,-0.86 -0.15,-0.72 -0.11,-0.88 0.52,-0.89 0.52,-0.29 0.48,-0.08 -0.25,-0.84 0.11,-0.67 -0.62,-0.25 -0.73,-1.1 0.08,-1.31 -1.34,-0.2 -0.78,-1.21 0.57,-0.44 1.2,-1.26 -0.54,-1.4 -0.44,-0.38 -0.78,0.34 h -0.44 l -1,-0.93 -0.54,-0.9 0.25,-1.08 -0.54,-0.9 -0.15,-0.67 h -0.6 l -0.51,-0.6 -0.67,0.49 -0.59,-0.23 -0.44,-0.45 -0.14,-1.2 0.56,-0.93 -0.59,-0.95 -0.25,-1.32 -0.63,-0.52 -0.21,-1 -0.52,-1.07 0.29,-1.43 -0.06,-0.91 -0.22,-0.67 0.32,-0.77 -0.68,-0.75 0.42,-0.56 0.16,-1 0.52,-0.16 v -1.05 l 0.08,-0.67 -0.42,-0.73 0.61,-1.23 -0.51,-0.67 0.06,-0.72 -0.33,-1.4 -0.63,0.34 -0.39,-0.76 0.24,-1.44 0.86,-0.63 0.95,-1.18 1,0.27 1.12,-0.61 0.69,-1.19 0.5,0.09 0.78,-1 h 0.41 l 0.14,-0.91 0.49,-1 -0.3,-1.26 -0.53,-1.14 -0.34,-0.74 -1.12,-0.13 0.41,-0.65 -0.49,-0.06 0.72,-0.78 0.18,-0.89 -0.55,-1.62 0.32,-0.75 1,0.35 -0.18,-1.33 0.76,-0.76 -1,-0.77 v -1 l -0.61,-0.78 0.76,-0.56 0.46,0.18 0.33,-1.1 0.53,-0.1 -0.14,-1.27 -0.78,-0.52 0.75,-0.34 0.66,-1.09 0.58,-0.05 0.53,-0.08 -0.21,-1.24 0.67,-0.56 0.65,-0.51 0.4,-0.86 -1,-0.61 -1,-1.26 v -0.67 l -0.22,-1.93 -0.26,-1.05 -0.23,-1.8 -0.07,-0.85 -0.54,-0.39 -0.56,-0.4 -0.55,-0.39 -0.42,-0.41 -0.42,-0.61 -0.42,-0.8 -0.79,-0.78 -0.49,-0.11 -0.75,-0.09 -0.81,-0.15 -0.64,-0.32 -0.45,-0.2 -0.34,-1.05 -0.68,0.05 -0.64,-0.59 h -0.51 l 0.13,-1 -0.53,0.06 h -0.44 l -0.72,-0.69 -0.16,-1.15 0.46,-0.36 0.79,-0.37 -0.64,-0.83 -0.63,-0.06 -0.63,0.63 h -0.55 l -0.36,-0.72 -0.85,-0.39 -1.2,1.36 -0.51,-0.11 -0.33,-0.88 -0.67,0.46 -0.51,-0.11 0.15,-1.22 -0.57,-0.52 -0.54,-0.07 -0.58,0.08 -0.42,-0.28 v -0.86 l -0.58,0.25 -0.42,-0.11 -0.35,-0.86 -0.53,0.7 -1.07,-0.2 h -1.51 l 0.55,-0.94 -1,-0.28 -0.87,0.4 h -0.82 L 1326,444 l -1.61,-0.54 h -1 l -0.52,-0.52 -0.41,-1.17 0.25,-0.86 0.6,-0.85 -0.43,-0.83 0.32,-1.06 -1.28,-0.69 -0.92,-0.48 1.79,-4.06 2,-3.24 0.53,-0.85 1.1,-2.95 0.4,-1.3 0.51,-1.64 0.36,-1 0.74,-2.12 1.15,-1.49 1.68,-2.6 0.47,-0.63 1,-1.24 0.72,-1 2.66,-3.66 3.07,-2.64 2.34,-1.16 0.42,-0.2 1.73,-1.15 1.38,-0.59 1.2,-0.31 5,-1.51 3,-0.79 15.64,-4.35 v -7.26 l 0.09,-3.58 0.06,-3.25 v -2.29 l 0.11,-2.74 0.17,-4.07 0.48,-4.08 1.05,-1.78 -0.43,-2 -0.6,-4.6 -0.11,-0.83 -0.8,-1.53 -0.5,-1.14 -0.59,-0.35 0.19,-0.73 -1,-0.63 -0.42,-0.31 -0.11,-0.81 -0.78,-1.31 0.69,-0.75 0.14,-0.79 0.08,-1.36 0.4,-1 0.41,-0.81 0.88,-0.84 v -1.06 l 0.24,-1.13 -0.71,-1.4 -2.06,-1.61 -0.42,-0.69 -0.44,-1.5 0.09,-1 0.14,-1.22 -2.39,-1.28 -0.78,-0.8 -1.1,-2.33 -1.58,-3.68 -2,-6.07 -1.71,-4.86 -0.29,-1 -1,-3.43 -0.62,-1.44 -0.21,-0.81 -0.5,-0.71 -1.23,-2.78 -0.13,-0.72 -0.38,-2.1 -0.68,-3.23 -0.35,-1.85 -0.37,-1 -0.77,-0.39 -0.45,-0.4 V 298 l -0.14,-1.49 -0.28,-2.79 v -2.58 -0.69 -0.68 -1.28 l 0.06,-1.32 0.15,-1.18 v -1.59 l -0.8,-1.25 -1.38,-1.14 -0.61,-0.89 -0.26,-0.94 -0.08,-3.72 -0.24,-2.85 -0.28,-1.11 -0.64,-1.86 -0.36,-0.85 -0.59,-3.9 -0.22,-1.48 -0.95,-2.38 -0.45,-1.06 -0.84,-2 v -1.59 l 0.11,-0.85 0.53,-0.71 0.49,-0.66 0.37,-1.63 -0.07,-1.29 -0.06,-1.05 -0.14,-2.76 -0.58,-4 -0.34,-1.43 -0.63,-1.39 -0.63,-0.37 -0.55,-0.32 -1.76,-0.67 -1.26,-1.28 -0.93,-1.21 -0.58,-1.21 -0.9,-1.5 -1.35,-1.09 -0.69,-0.56 -1.87,-0.76 -2,-0.43 -2.59,-0.64 -1.05,-0.69 -0.75,-1.16 -1.06,-1.73 -1,-0.65 h -0.58 L 1321,227 l -0.7,-0.79 -0.48,-1 -0.74,-0.25 -0.62,0.25 -1.33,0.68 -1.19,0.5 -1,-0.06 -1,-0.73 -1.3,-0.77 v -0.67 l 0.34,-0.71 0.25,-1.14 0.15,-0.65 c -0.65,-0.48 -0.64,-0.51 -0.64,-0.51 l -0.85,-0.17 -0.52,-0.1 -1.22,-0.23 -0.62,-0.7 -0.14,-0.9 0.21,-0.92 -0.43,-1 -0.57,-0.35 -1,-0.32 -0.52,0.38 -0.52,0.29 -0.56,-0.13 -0.42,-0.26 -0.55,-0.52 -0.51,-0.34 -0.72,0.21 -0.44,-0.17 -0.52,-0.66 -0.68,-1.15 -0.92,-1 -0.69,-0.15 h -0.68 l -1.1,0.5 -1.32,0.83 -1.26,1.09 0.46,0.66 0.74,0.24 v 1.05 l -0.49,0.5 -1,1 -0.62,0.47 -1,0.39 -1.32,0.15 -3.59,0.27 -8,0.6 h -0.52 l -10.57,0.36 -5.13,0.17 h -0.57 -0.47 -0.84 -0.61 l -2.6,0.22 -1.67,0.13 -2.33,0.19 -5.21,0.41 -8.06,0.23 -5.34,0.16 -4.72,0.13 -7.65,0.22 -4.55,0.25 -4.67,0.26 -5.7,0.31 h -0.64 l -9.17,-0.8 -1.61,-0.14 -0.6,-0.05 -5.45,-0.48 -0.56,-0.05 -5.48,-0.6 -4.8,-0.52 -1.54,-0.08 -8.51,-0.46 -4.84,-0.66 -6.16,-0.17 -3,-0.32 -5.74,-0.64 -3.35,-0.37 -6.35,-1.12 -7.4,-1.35 -0.61,-0.11 -2.57,-0.47 -4,-0.74 -3.56,-0.35 -3,-0.29 -4.37,-0.44 -3.46,-0.34 -3.22,-0.32 -0.93,-0.09 -2.49,-0.25 -2.29,-0.28 -5,-0.64 -1.93,0.14 -0.39,0.47 -0.16,0.7 v 0.09 0.68 l -0.41,0.64 -0.32,0.28 -0.64,0.2 -0.2,0.41 -0.6,1.54 -1,0.87 -0.58,0.59 -0.56,0.59 -1.27,1.29 -0.22,0.24 -0.36,0.21 -0.92,0.18 -0.39,0.39 -0.52,0.19 -0.58,0.05 -1.6,-0.23 -0.89,0.07 -0.91,0.18 -1.34,0.65 -1.26,1 -0.53,0.22 -0.62,-0.06 -1.14,1.11 -1.08,0.89 -0.89,1.19 -0.58,0.41 -1.54,0.85 -1,1.18 -0.6,1.06 -0.49,1.28 -0.3,1.4 -0.51,1.09 -0.59,0.31 -0.27,-0.12 v 0 l -0.15,-0.32 0.45,-1.34 0.75,-1.51 0.54,-1.25 0.68,-1 v -0.29 -0.25 l -0.46,0.14 -0.62,0.82 -0.52,0.19 -0.41,0.14 -0.92,-0.25 -1.41,-0.64 -1.53,-0.2 -0.79,-0.62 h -0.66 l -1.43,0.88 -0.39,0.1 h -0.06 l -0.18,-0.27 v -0.91 l -0.21,-0.89 0.43,-1.2 v -0.33 l -0.1,-0.31 -0.6,-0.93 -0.16,-0.62 -0.08,-0.27 -1,-0.49 -0.14,-0.17 v -0.32 l 0.64,-0.56 h 0.59 l 0.52,-0.22 1.24,-0.36 1,-0.12 1,0.05 h 0.62 l 1,-0.08 0.91,-0.22 2.18,-0.22 2.37,-1.57 2.78,-0.6 3.9,-1.77 1.73,-1.41 1.5,-0.55 1.37,-1.16 0.75,0.08 0.57,-0.12 3.2,-2.75 0.24,-0.49 -1.16,-0.41 -0.42,-0.16 -0.43,0.38 -1.69,1.29 -0.47,0.36 -3,2 -2.41,1.28 -6.46,2.47 -2,0.76 -1.47,0.27 -3.4,1 -4.46,0.9 -0.93,0.3 h -1.31 -1.66 l -1.74,0.36 -1.55,0.11 h -2.13 l -3.48,0.39 -1,0.25 h -1.23 l -1.1,-0.2 -0.9,-0.16 -0.43,-0.21 -0.78,0.13 -0.61,-0.37 h -0.07 l -0.48,1 -0.35,0.09 -0.15,-0.28 0.2,-1 -0.17,-0.2 -1.18,0.95 -3.36,-0.12 -1.54,-0.27 -1.83,-0.73 -1.53,-1.47 h -0.31 l 0.07,0.52 0.48,0.64 -0.05,0.14 h -0.31 l -0.5,0.44 h -0.2 l -0.32,-0.4 v -0.57 l -0.18,-0.28 0.36,-0.6 -0.4,-0.18 -0.86,0.13 -1.19,-0.17 -1.12,-0.4 -1.14,-0.82 -0.86,-1 -0.63,-0.45 -0.84,-1.11 -0.55,-0.16 -0.7,0.28 -0.36,0.14 -0.93,-0.33 -1.19,-1 -0.66,-0.16 -0.38,-0.26 -0.9,-0.89 -0.65,-1 -0.56,-1.68 -0.09,-0.72 0.34,-1.7 -0.54,-1.37 v -0.54 l -0.14,-0.25 -0.1,-0.18 0.07,-0.16 0.14,-0.31 -0.4,-1.1 0.38,-0.89 -0.56,-0.55 -1.49,-0.27 -0.23,-0.23 0.17,-0.2 1.78,-0.23 0.3,-0.41 -0.12,-0.71 -0.67,-1.72 -1.52,-2.9 -0.28,-0.54 -0.36,-1.43 0.24,-2.49 -0.11,-0.35 -0.19,-0.11 -1,1 -1.09,0.27 -0.42,-0.35 v -1.53 l -0.49,-0.61 0.08,-0.92 0.21,-1.57 -0.15,-1.38 -1.71,-1.21 -1.14,-1.42 -0.15,-0.1 -1,-0.67 -0.29,-0.32 -0.61,-1.63 0.25,-0.9 1.17,-1.1 v -0.42 l 0.09,-1 0.32,-0.21 0.87,0.19 1.82,0.91 2.21,1.37 1.64,0.62 1.57,1 3,1.33 0.09,0.09 0.73,0.76 h 0.1 l 1.54,0.36 1.14,1.23 1.84,1.2 1.83,0.9 0.68,0.66 1,1.68 1.25,1.37 0.17,0.23 2.3,3.33 1.36,2 0.59,-0.33 0.6,-0.74 0.2,-0.75 -0.23,-0.54 -1.88,-2.38 -0.52,-0.85 -0.31,-0.5 -3.46,-3.27 -2.41,-1.59 -4.31,-3.2 h -0.11 l -2.31,-1 -5.66,-3.1 -2.81,-1.89 -1.27,-0.52 -0.18,-0.13 -1.34,-0.95 -1.63,-0.5 -0.76,-0.08 -0.89,-0.63 -1.78,-1.92 -0.66,-0.4 -1.19,-0.25 -2,-0.08 h -1.08 l -1.08,0.23 -0.35,0.08 -1.9,0.15 -5.55,-0.22 -3,0.22 -1.22,-0.07 -1.18,-0.09 -4.36,0.26 -6.1,1.19 -2.28,0.77 -0.18,0.06 -5.08,1.61 -5.69,1.62 -2.82,0.81 -1.76,0.5 -3.58,0.49 -5.69,1.3 -2.84,0.39 -0.81,0.11 -2,-0.15 -1.63,0.2 -5.52,1.2 -2.66,0.93 -1,0.49 -2.36,1.14 -1.16,1 -1.21,0.47 -2,1.41 -3.81,1.57 -0.82,0.56 -0.6,0.62 -3.34,3.41 -4.11,2.54 -2.14,1.19 -0.94,0.33 -0.74,0.07 -1.58,0.16 -1.09,0.68 -4.73,1.51 -1.35,0.13 -1.32,-0.2 -3.26,0.11 -2.53,0.45 -0.54,0.21 -3.63,1.4 -2.13,1 -1,0.67 -1.22,1.43 v 0 l -1,0.27 -1.12,0.77 -1.45,1.46 -0.23,0.23 -1.21,1.69 -1.93,3.45 -1.2,1 -0.49,0.63 -1.38,2.62 -0.19,0.32 -0.76,1.19 -0.11,0.17 -0.24,0.26 -2.44,2.6 -0.65,0.4 v 0.29 l 1,-0.51 0.35,-0.46 1.45,-1.22 h 0.24 l 0.33,0.42 0.08,0.61 0.42,0.92 -0.25,0.94 -0.33,0.25 h -1 l -1.23,0.9 -2,0.55 -0.14,0.79 -0.27,0.51 -1.41,-0.19 -0.12,-0.15 0.13,-0.38 2.21,-2.44 -0.12,-0.14 -4.3,4.24 h -0.07 l -2.62,2 -2.29,1 -1.58,0.63 -2.11,0.85 -3.5,0.94 -0.73,0.16 -0.7,-0.24 h -0.83 l -2.74,0.59 -3.05,0.14 -1.12,0.32 -1.06,0.09 -3.15,1.08 -0.65,0.45 -3.39,1.65 -1.37,0.3 -1,0.49 -7.49,1.88 -0.9,0.23 -1.54,-0.16 -0.34,0.25 v 0 l -1.07,0.81 -1.63,0.77 -1.62,0.5 -4.13,0.06 -1.71,0.45 -0.46,0.12 -1.1,0.41 -3.58,0.63 h -0.84 l -1.29,0.46 -1.17,0.59 -2.32,0.83 -1.14,0.23 -1.28,0.73 -3.18,0.9 -0.72,0.49 -0.19,0.08 -2,0.77 -2.42,0.46 -1.28,0.44 -1,0.61 -1.92,0.76 -2.69,1.06 -1.67,0.58 -2.85,1 -1.22,0.21 -3.58,1 -1.16,0.52 -0.86,0.1 -3.53,1.28 0.29,0.18 1.61,-0.52 0.62,0.16 0.31,-0.31 1.18,-0.49 0.59,0.2 -0.05,1.32 -0.25,0.81 -0.25,0.17 h -0.89 l -0.43,0.19 -0.54,0.93 -0.25,0.79 0.36,0.86 -0.18,0.29 0.48,0.46 h 0.28 l 0.32,0.36 -1,0.17 -0.06,1 -0.33,0.59 0.31,0.85 -0.33,1.69 0.21,0.62 -0.64,1 -0.44,-1.92 -0.26,-0.17 -0.88,-0.09 -0.43,-0.24 -0.19,0.17 0.22,0.46 -0.76,0.37 -0.92,0.75 -0.07,0.4 0.16,0.36 -0.12,0.18 -0.58,-0.26 -1.37,1.76 -0.77,0.28 -0.42,0.56 -0.61,1.33 v 0.77 l -0.68,1.73 -0.14,0.73 -0.07,0.34 v 0.23 H 762 l -0.12,0.59 -0.07,0.36 0.14,0.41 -0.21,0.29 -0.48,0.23 -0.28,0.43 0.42,2 -0.16,1.62 0.31,0.46 -0.15,0.4 0.21,0.86 -0.3,0.79 v 0 l -0.34,0.16 -0.9,-0.07 -0.52,0.79 h -0.46 l -0.5,-0.92 -0.35,0.37 0.13,0.4 h -0.48 l 0.09,0.56 -0.3,0.64 -0.68,3.73 -0.35,0.64 0.34,1.06 0.01,1.3 0.06,0.87 0.75,0.73 0.78,0.2 -0.19,0.36 0.66,0.62 0.47,0.08 0.12,-0.16 0.52,0.08 0.71,-0.22 v 0.83 l 0.91,-0.08 0.2,0.23 -0.15,0.47 -0.34,0.11 -0.14,0.29 0.29,0.8 -0.66,-0.11 v 0.48 l -0.17,0.17 h -0.54 l -0.36,0.49 0.42,2.16 v 1.31 l -0.33,-0.06 -0.37,-0.44 -0.27,0.94 v -1.59 l -0.26,-0.3 -0.47,0.15 0.07,-0.62 -1,-1.56 -0.53,-1.76 -0.46,-0.91 -0.51,-0.37 -0.27,-0.53 -0.39,-0.14 -0.9,-0.74 -0.59,-0.13 -0.61,-0.28 -1.14,-0.54 -3.69,-0.47 -1.61,-0.69 -1.41,-1.67 -0.42,-0.14 -1.53,-1.64 -0.49,-1.77 -0.09,-0.08 -0.14,-0.11 -0.63,-0.07 -1,-0.57 -1.33,-0.11 v 0.22 h 0.45 l 0.54,0.4 -0.14,0.34 0.14,0.8 -0.71,0.08 -0.57,-0.15 -0.19,0.1 v 0.17 l 0.48,0.31 0.93,0.24 0.52,0.75 0.09,0.39 -0.4,0.87 -0.35,0.16 -1.36,-0.21 -0.48,0.14 1,2.36 -0.81,0.74 0.52,0.56 0.34,2 v 0.87 l 1.62,1.55 0.31,0.66 0.1,0.92 -0.13,1.92 -0.1,1.54 0.25,0.77 -0.76,1.24 V 305 l 0.8,1 -0.09,1.24 0.81,2.09 1.21,0.67 0.33,0.66 0.11,1.71 0.21,1.37 0.27,0.7 0.44,0.17 v 2.83 l 0.26,1.27 0.13,0.67 1.17,2.83 0.2,1.17 -0.21,1.45 0.93,0.9 0.06,0.9 v 0.24 l 0.07,0.19 0.29,0.68 -0.08,0.3 -0.36,1.4 0.25,0.38 0.25,0.36 0.09,2.12 0.17,0.29 0.6,0.27 1,0.22 0.12,0.21 v 0 l 0.25,0.39 0.19,0.66 -0.79,1 -0.1,0.13 -0.19,0.46 v 0.12 0 0.27 l -0.16,0.19 -0.29,0.36 -1.07,1.32 -0.29,1.26 -0.15,0.25 -0.06,0.09 -0.26,0.1 v 0 l -0.94,0.37 v 0 l -0.35,0.48 -0.23,0.92 -0.25,1 -0.22,0.89 -0.05,0.21 v 0.16 l 0.14,0.65 0.13,0.56 0.25,0.38 0.71,1.06 v 0.2 0.24 l -0.57,3 -0.23,0.33 -0.21,0.3 v 0.08 l 0.07,0.22 -0.16,0.31 -0.07,0.14 v 0.51 0.15 l -0.29,1.36 -0.34,0.55 -0.26,0.84 -0.12,0.37 -0.54,0.8 -0.25,0.37 -1.24,1 -0.11,0.08 -1.09,1.58 -0.24,0.2 -1.31,1.09 -0.22,0.2 -0.09,0.07 -1.48,1.34 v 0 l -0.22,0.24 -0.1,0.05 -2.49,1.1 -1.55,0.88 -0.4,0.22 -0.06,0.1 -0.59,0.92 -0.29,0.09 -1,0.33 -0.11,0.17 -0.21,0.48 v 1.19 0.78 0 l 0.47,2.1 0.1,1.23 0.63,1.75 v 0.27 l -0.21,1.17 -0.07,0.09 -0.27,0.33 v 0 l -0.11,0.13 -0.06,0.08 -1.08,1.52 -0.17,0.24 -0.34,0.49 -0.11,0.31 v 0 0.09 l -0.09,0.25 0.08,0.17 0.38,0.88 0.53,0.46 4.95,0.9 0.74,0.7 1.06,1.13 2.42,2.57 2.55,1.24 2.19,1.06 0.44,1 1.22,0.89 0.2,0.41 0.14,0.3 1.87,2.13 v 0 l 0.3,0.67 0.84,0.9 0.16,0.64 0.46,0.72 1,0.32 0.43,0.52 0.2,0.76 v 0.18 0.05 l 0.36,0.38 0.49,0.25 0.3,0.16 2,1.49 0.28,0.21 0.72,0.39 0.76,0.1 0.81,0.66 1.54,0.76 0.42,0.52 0.48,0.29 0.72,0.44 0.15,0.31 0.51,1 0.12,0.55 v 0.16 l 0.06,0.08 0.55,0.61 0.26,0.29 h 0.09 l 0.73,0.23 h 0.09 l -0.15,0.36 -0.4,1 -0.87,0.77 -0.89,2.58 0.44,1.78 0.27,0.46 0.79,0.63 0.18,0.38 -1,2.54 -0.27,1.13 -0.41,0.65 -1.76,2.14 -0.94,0.1 -0.08,0.05 -0.55,0.29 -0.33,0.57 -0.09,0.52 -0.06,0.31 v 0.14 l 0.06,0.79 -0.73,1.71 v 0.55 l 1,1.28 0.2,0.67 -0.09,0.5 v 0.36 1.34 l 0.41,0.56 0.08,0.11 0.24,0.73 v 0.95 l 0.77,0.94 0.46,0.82 0.12,0.21 0.18,0.67 -1,0.93 0.68,0.73 0.44,0.47 0.8,0.95 0.86,0.16 0.41,-0.15 0.57,0.54 1,0.49 1.57,0.21 0.6,0.35 1,0.09 0.42,0.41 0.44,1.1 0.27,0.25 0.28,1.37 -0.27,1.41 -0.36,0.57 -0.82,0.58 -0.1,0.18 -0.29,0.5 0.07,0.49 0.53,0.47 0.48,0.72 0.21,0.79 v 0.53 l -0.23,0.52 -1.31,1.67 v 0.15 l 0.19,2.95 0.12,0.66 0.35,0.64 0.45,0.31 0.37,0.13 1.06,0.37 h 0.07 l 0.9,0.48 0.56,0.69 0.49,1.06 0.36,0.28 0.11,0.47 -0.22,0.5 -0.44,0.41 -0.18,0.49 0.15,0.86 0.06,0.31 -0.09,1 -0.4,0.32 -0.07,0.66 -0.81,0.71 -0.24,0.62 -0.64,0.56 0.46,1.11 -0.33,1.21 -0.53,0.66 -0.14,0.38 -0.2,0.54 v 0.12 l 0.12,0.19 0.21,0.32 0.28,0.43 0.36,0.21 v 0 0 l 0.15,0.43 -0.12,0.63 -0.26,0.46 -0.13,0.22 -0.55,0.79 v 0.93 l -0.2,0.53 -0.69,1.85 -0.74,0.33 -0.69,0.79 h -0.44 l -0.64,0.8 -0.11,0.76 -0.57,0.76 -0.57,0.34 -0.26,0.43 -1.19,0.45 -0.2,0.34 v 0.34 l -0.49,0.77 -0.79,0.59 0.14,0.69 -0.14,0.37 -0.09,0.25 0.48,0.49 0.31,0.66 v 0.72 l 0.62,0.14 0.21,0.05 0.25,0.25 v 0 h 0.16 l 0.92,0.08 0.22,0.28 0.16,0.2 0.25,0.09 h 0.08 l 0.06,0.13 0.42,0.93 0.12,1.76 -0.19,0.68 0.08,0.42 0.09,0.49 0.19,0.15 h 0.05 v 0.05 0.95 l 0.09,0.15 0.09,0.17 -0.06,0.33 V 494 l 1.12,1.06 v 0.09 l 0.13,0.48 0.49,0.63 0.34,0.29 0.11,0.09 0.27,0.23 0.92,0.79 0.82,0.9 0.26,0.08 0.63,0.17 0.08,0.2 0.11,0.25 -0.15,0.44 0.08,0.2 0.59,0.57 0.22,0.57 0.21,0.56 -0.09,1.1 0.33,0.87 -0.25,1.2 v 0.25 l 0.47,0.53 0.15,0.59 -0.13,1.41 -0.63,0.51 -0.16,0.36 -0.49,0.31 -0.89,1.08 -1.17,2.11 0.12,0.42 0.74,0.71 0.18,0.14 v 0.12 0.85 l 0.17,0.87 0.39,0.68 0.61,0.16 0.94,0.22 0.58,0.36 h 1.54 l 0.45,0.34 0.4,0.74 0.48,0.14 h 0.75 l 0.63,0.65 0.49,1 0.65,0.12 h 0.83 l 0.54,0.56 0.94,-0.27 0.55,0.44 0.56,-0.08 1.09,0.36 0.47,0.82 h 0.79 l 0.86,0.92 0.24,0.84 0.78,1.43 0.11,0.76 -0.64,0.75 0.25,0.8 -0.29,1.29 0.58,0.81 -0.68,0.5 0.89,1.93 0.42,0.59 -0.09,1.11 -0.66,0.55 0.87,1 v 0.67 l 1,2.07 0.45,0.5 0.17,0.07 0.17,0.07 0.22,0.43 -0.08,0.43 0.87,0.93 0.18,0.19 0.47,0.52 0.22,0.8 0.17,1 0.31,0.45 -0.24,0.45 0.15,1.22 v 0.11 l 0.11,0.86 v 0.2 l -0.1,0.13 -0.21,0.24 -0.26,0.3 -0.39,0.47 -0.57,0.61 -0.2,1.33 -0.47,0.74 v 0.57 l 0.28,0.69 -0.59,0.82 v 1.25 l -0.08,0.36 -0.56,1.1 0.3,0.92 -0.31,0.91 0.11,1.17 -0.34,0.66 -0.33,1.07 -0.46,0.93 0.26,1.23 -0.2,1.16 -0.26,0.82 -0.42,0.35 -0.71,0.6 -0.44,0.51 0.31,0.66 0.36,0.8 -0.54,0.4 -0.23,1.61 -0.67,0.24 v 1.39 l -0.49,1.39 -0.06,0.79 -0.64,1 -0.24,0.94 -0.42,0.1 -0.74,2.2 -0.28,0.78 -0.49,0.76 -0.72,0.63 -0.52,1 -0.77,0.71 -0.94,1.7 -0.65,0.7 -0.79,0.85 0.07,0.66 z M 739,288.55 h -0.36 l -0.64,0.32 -0.18,-0.47 0.67,-0.39 h 0.44 l 0.11,0.18 0.1,0.15 z"
       class="cls-4"
       id="Poland" />
    <path
       inkscape:connector-curvature="0"
       d="m 1057.48,300.13 -0.92,-0.32 -0.93,-0.23 -1.74,-0.06 -1.24,0.15 -1.3,0.46 -0.58,0.12 -1.15,-0.12 -0.83,-0.26 -0.34,0.06 -0.46,0.58 -0.45,0.29 -1.78,-0.12 -1.93,0.15 -0.45,0.26 -0.56,0.58 -0.28,0.06 -0.76,-0.38 -0.2,-0.2 0.71,-0.41 0.38,-0.38 -0.11,-0.52 -0.22,-0.2 -0.81,-0.35 -2.63,-0.58 -0.62,-0.21 -2.87,-0.43 -1.19,0.14 -1.67,0.4 -0.29,-0.95 -0.86,-1.91 -0.05,-0.26 v -0.93 l 0.07,-0.35 0.35,-0.87 0.31,-0.47 0.89,-1.07 0.6,-1 0.47,-1.16 0.56,-1 h -0.22 l -1,0.81 -1,0.47 -0.74,-0.18 -0.91,-0.52 -0.34,-0.09 -0.51,0.18 -0.37,0.78 -0.18,0.21 H 1029 l -1.25,-0.67 h -0.38 l -1,0.52 -0.77,0.73 -1.14,0.58 -1.63,0.17 h -1 l -0.27,0.09 -0.15,0.23 0.07,0.26 0.46,0.58 0.12,0.29 -0.07,0.26 -0.76,0.32 -0.65,0.06 -0.69,-0.06 -0.2,-0.14 -0.17,-0.26 -0.25,-0.73 -1.23,-0.38 -0.48,-0.31 -0.12,-0.18 -0.08,-0.35 0.42,-1.13 -0.16,-0.2 h -1.42 l -0.76,0.72 -0.41,0.26 -0.8,0.29 -0.13,-0.23 v -0.29 l -0.12,-0.26 -0.26,-0.12 -0.65,0.09 -2.43,-0.35 -1.76,0.35 h -1.37 l -0.63,-0.14 -0.74,-0.73 -0.51,-0.32 -1.05,-0.15 -2.45,-0.08 -0.64,-0.21 -0.38,-0.29 -0.33,-0.43 v -0.26 -0.38 l 0.07,-0.32 0.76,-1.19 0.07,-0.29 -0.2,-0.84 -0.18,-0.49 -0.16,-0.21 -1.89,0.21 -0.34,-0.06 -0.71,-0.44 -1.38,-0.2 -0.51,-0.23 -0.38,-0.06 -0.76,0.72 -0.29,0.12 -0.51,-0.2 -0.4,-0.38 -0.16,-0.93 -0.25,-0.69 -0.48,-0.33 -0.62,0.09 -0.41,0.41 -0.84,0.55 h -0.69 l -0.25,-0.15 -0.29,-0.37 -0.13,-0.32 -0.07,-0.58 -0.46,-0.9 c -0.62,-0.22 -0.71,1.13 -0.91,1.63 a 11.67,11.67 0 0 0 -0.81,2.24 4.11,4.11 0 0 1 -1.22,1.92 c -0.4,0.41 -0.4,0.71 -0.91,0.71 a 13.33,13.33 0 0 1 -1.83,-0.3 16.18,16.18 0 0 1 -2.23,-1.83 2.32,2.32 0 0 0 -2,-0.71 c -0.71,0 -1.82,0.1 -1.82,0.1 l -1.93,-1.21 v 1.92 l 2.34,2.46 -3.25,3.85 -1.72,-0.71 -1.43,0.92 -1.52,-1.73 a 4.61,4.61 0 0 0 -0.71,1.32 c -0.1,0.51 -0.5,0.71 -1.11,0.81 -0.61,0.1 -0.41,0.41 -0.41,0.91 a 3.22,3.22 0 0 1 -0.4,1.22 7.17,7.17 0 0 1 -1.22,1.12 0.88,0.88 0 0 0 -0.51,0.91 c 0,0.41 -0.2,2.54 -0.2,2.54 a 5.61,5.61 0 0 0 1.22,0.1 c 0.81,0 0.71,1.62 -0.11,1.82 a 4.63,4.63 0 0 1 -2.33,0.11 c -0.4,-0.21 -1.62,-0.92 -1.62,-0.92 l -0.71,1.12 1.11,0.61 0.11,1.32 h -1.63 l -1,-1.63 -1.93,-0.81 -2,1.83 -2.23,-0.31 -1.93,-4.16 a 8.05,8.05 0 0 1 -1.52,1.12 12.83,12.83 0 0 1 -1.87,0.4 l -1.26,0.46 -0.42,0.32 -0.35,0.38 -0.58,0.93 -0.22,0.52 -0.22,1 v 0.67 l 0.09,0.87 v 0.72 l 0.05,0.26 -0.15,1 -0.47,1.16 -0.07,0.26 -0.07,0.73 -0.2,0.9 -0.41,1 -0.12,1.36 -0.38,0.76 -0.35,0.4 -1,0.9 -0.81,1 -0.6,0.93 -0.69,0.78 -0.24,0.15 -0.13,0.2 -0.6,0.52 -1.05,0.76 -0.31,0.44 -0.21,0.61 v 1 l -0.27,0.44 -0.78,0.7 -1.42,0.4 -0.16,0.18 v 0.32 l 0.18,0.46 0.8,1.07 0.74,0.7 0.71,0.47 1.13,0.43 0.92,0.23 0.24,0.15 1,0.23 0.51,0.23 1.32,0.26 0.29,0.15 0.17,0.2 0.09,0.26 -0.46,0.67 -0.07,0.32 0.09,0.26 0.42,0.64 0.32,0.76 0.53,1.83 0.54,0.58 1.09,0.75 0.65,0.84 0.26,0.44 0.05,0.32 -1.49,2.26 -0.65,1.22 -0.22,0.21 -1.14,0.2 -1.27,0.52 -0.55,0.15 h -1 l -1.26,0.17 -0.43,0.23 -0.07,0.32 V 340 l 0.07,0.32 0.89,0.93 0.16,0.53 v 1.27 l -0.15,1.4 -0.11,0.23 V 345 l -0.07,0.32 -0.07,0.72 v 0.27 l 1,-0.12 0.16,-0.19 1.16,-0.26 0.15,0.15 v 0.61 l -0.07,0.69 -0.2,0.15 -0.85,0.26 -0.17,0.18 0.28,3.07 -0.08,1.34 -0.22,0.93 -0.12,0.29 -0.15,0.17 -0.27,0.15 h -0.56 l -0.07,0.32 v 1 l 0.09,0.93 0.31,0.76 v 0.29 l 0.22,0.49 0.17,0.58 v 0.55 l 0.11,0.58 v 0.7 l -0.08,0.32 -1.65,-0.25 -0.27,0.06 -0.18,0.23 -0.62,1.31 -0.31,0.75 -0.07,0.32 0.12,0.55 0.86,1.63 0.38,1 0.16,0.23 0.2,0.12 h 0.35 l 1.87,-1.05 2.43,-1.07 0.59,0.2 0.75,0.73 1.19,1.36 1,0.84 0.71,0.44 0.62,0.17 0.63,-0.08 0.55,-0.18 0.9,-0.08 0.24,0.17 0.34,0.73 v 0.26 l 0.22,0.52 v 0.23 l 0.13,0.24 0.09,0.64 -0.08,0.26 -0.38,0.43 -0.24,0.47 v 0.32 l 0.13,0.52 0.75,1.42 0.09,1.22 0.28,0.79 -0.07,0.66 -0.34,0.76 -0.08,0.32 v 0.32 l 0.31,1.36 v 0.41 l -0.15,0.58 0.07,0.32 0.22,0.46 v 0.7 l -0.31,0.46 -0.38,0.32 -0.31,0.44 -0.28,1.63 -0.18,0.29 -0.16,0.11 -0.91,0.18 h -1 l -0.81,-0.73 -0.59,-0.17 -1.3,0.46 h -0.31 l -0.66,-0.17 -0.3,1.21 0.12,0.53 0.58,0.58 0.1,0.2 v 0.38 l 0.11,0.26 1.2,0.7 0.78,0.32 0.9,0.63 0.37,0.35 0.49,0.64 0.29,0.7 0.14,0.9 v 0.61 l -0.27,0.87 -0.6,1.36 -0.07,0.29 0.06,0.29 0.23,0.15 0.47,-0.29 h 0.28 l 0.28,0.12 0.37,0.66 0.34,0.35 0.24,0.18 h 0.36 l 0.44,-0.26 0.49,-0.64 0.59,-0.5 1.35,-0.37 1.61,-0.09 0.27,-0.09 0.39,-0.37 0.27,-0.47 0.27,-0.11 1.6,-0.09 h 1.34 l 0.2,0.26 v 0.23 l 0.22,0.49 v 0.29 l -0.38,0.38 -0.24,0.12 -0.31,0.46 -0.11,0.29 v 0.64 l 0.07,0.55 0.09,0.29 0.4,0.67 0.45,0.26 1.07,0.14 1.62,-0.14 0.16,0.2 0.09,0.23 0.07,0.61 v 1 0.61 l -0.11,2.06 0.28,-0.08 0.3,-0.44 0.4,-0.32 0.29,0.14 0.36,0.67 0.4,-0.26 0.29,-0.49 0.28,-0.18 0.29,0.06 0.87,-1.19 -0.5,-1.42 a 3.11,3.11 0 0 1 -1.22,0.81 c -0.81,0.3 -0.51,-1 -0.1,-1.42 a 4.66,4.66 0 0 1 2.13,-0.61 c 0.61,-0.1 0.71,0.71 0.81,1.42 0.1,0.71 0.81,0.51 0.91,-0.1 0.1,-0.61 0,-1.12 0.51,-1 a 20.6,20.6 0 0 1 3.75,1.73 1.33,1.33 0 0 0 1.22,0.1 c 0,0 0.81,-0.41 1.22,-0.1 a 19.49,19.49 0 0 1 1.62,1.82 10.63,10.63 0 0 0 1.52,0.31 c 0.81,0.1 0.61,0.81 0.21,1.42 -0.4,0.61 0.6,1 1.31,1 0.71,0 0.51,0.51 0.71,1.32 0.2,0.81 0.21,0.61 0.71,0.71 0.5,0.1 1,0 1.53,0.1 0.53,0.1 0.71,0.41 0.71,1 0,0.59 -0.07,1.32 -0.07,1.32 l 1.06,0.15 1.57,0.37 h 0.31 l 0.2,-0.12 0.11,-0.35 v -0.26 l -0.17,-0.23 v -0.32 l 1.44,0.14 1.18,0.38 0.89,0.61 1.4,0.81 0.14,0.26 v 0.29 l -0.19,1 v 0.32 l 0.26,0.44 0.39,0.32 0.82,0.35 0.69,0.11 1.36,0.09 1,-0.09 0.24,0.09 0.07,1.95 0.36,0.34 0.68,0.09 1.77,-0.76 0.84,-0.08 1,-0.52 0.31,-0.38 0.81,-0.67 1.09,-0.7 1.64,-1.27 0.27,-0.47 -0.29,-1 0.11,-0.27 0.23,-0.14 0.66,0.49 0.28,-0.12 v -0.14 l 0.05,-0.14 0.8,-0.19 0.09,0.07 0.3,0.86 0.14,0.56 -0.19,1 -0.32,0.87 -0.26,1 0.08,0.55 0.26,0.76 v 0.61 0.2 l 0.64,-0.06 1.76,0.2 0.29,-0.05 0.85,-0.61 0.2,-0.09 h 0.36 l 1,0.55 0.29,0.09 h 0.32 l 0.19,-0.18 -0.09,-0.31 0.07,-0.56 0.89,-0.55 0.34,-0.4 0.22,-0.56 h 0.29 l 1,0.21 1.38,0.61 v 0.29 l -0.15,0.23 -0.16,0.67 v 0.58 l 0.33,0.08 0.33,-0.05 1,0.11 0.23,0.15 0.24,0.46 v 0.35 l -0.32,0.84 v 0.58 l 0.32,0.15 h 0.29 l 0.55,-0.18 1.45,-0.66 0.4,-0.26 0.18,-0.24 h 0.29 l 0.25,0.12 0.11,0.26 0.11,0.58 0.82,0.29 1.26,0.29 0.15,0.24 0.07,0.32 0.17,1.45 0.36,1 0.14,0.24 0.33,0.37 0.24,0.12 h 0.63 l 0.33,0.12 0.12,0.2 0.15,0.87 0.2,0.47 h 0.36 l 0.91,-0.15 0.32,0.12 0.17,0.2 0.07,0.23 0.07,1.54 0.31,1.08 0.69,0.72 0.44,0.67 0.2,0.15 0.42,0.07 0.46,-0.07 0.09,0.23 -0.29,1.33 0.06,0.21 0.27,0.43 0.49,0.26 0.6,-0.08 1.16,-1 0.53,-0.17 0.36,0.05 1.38,0.53 1,0.23 0.56,-0.12 0.85,-0.58 1,-0.49 1,-0.44 1.31,-0.51 0.44,-0.29 v -0.32 l -0.4,-0.67 0.12,-0.23 0.39,-0.35 -0.11,-0.24 -0.49,-0.63 0.18,-0.27 0.42,-0.23 0.31,0.06 0.36,0.38 0.56,0.9 0.71,0.75 0.22,0.12 h 0.36 l 1.12,-0.2 0.33,0.37 0.31,0.5 0.09,0.2 -0.15,0.26 -0.16,0.15 -0.54,0.2 -0.9,0.49 -0.16,0.2 -0.09,0.35 v 0.29 l 0.25,0.12 0.29,-0.06 1.67,-0.81 0.29,-0.06 0.82,0.67 0.11,1.16 0.11,0.29 0.69,0.12 h 0.69 l 1.14,0.29 h 0.73 l 1.63,-1.34 0.6,-0.38 0.3,-0.06 0.6,0.21 2,0.06 0.27,0.17 0.4,0.58 0.58,0.58 h 0.31 l 1.65,-1.63 0.67,-0.37 0.36,0.08 0.28,0.41 0.19,0.49 0.37,0.35 0.27,0.15 0.23,-0.12 0.11,-0.23 v -0.35 l -0.08,-0.23 -0.27,-0.41 -0.16,-0.52 0.22,-0.18 0.87,0.29 0.18,-0.17 v -0.38 l 0.31,-0.9 0.89,-0.55 0.73,-0.72 0.31,-0.41 0.58,-0.49 h 0.31 l 0.63,0.17 h 0.31 l 0.18,-0.58 0.08,-1.65 0.27,-1.28 0.12,-0.35 v -0.58 l -0.24,-0.44 -0.2,-0.2 h -1.63 l -0.24,-0.15 -0.16,-0.23 0.09,-0.35 0.6,-0.87 h 0.28 l 1.13,-0.69 1.41,0.58 0.24,-0.09 0.29,-0.46 0.22,-1.43 0.13,-0.64 0.1,-0.26 0.28,-0.46 0.45,-0.29 0.51,-0.18 0.16,-0.2 0.15,-0.23 0.24,-0.93 0.21,-0.52 0.19,-0.27 0.22,-0.11 h 0.32 l 1,0.26 0.28,-0.06 0.19,-0.2 0.11,-0.24 -0.07,-0.55 -0.34,-0.4 -0.66,-0.5 -1.72,-1 -0.13,-0.2 -0.18,-0.49 -0.11,-1.16 -0.31,-1.11 -0.07,-0.58 0.09,-0.29 0.13,-0.2 0.76,-0.41 1,-0.29 0.67,-0.37 0.19,-0.23 0.11,-0.27 v -0.64 l 0.07,-0.31 0.15,-0.24 1.14,-0.2 0.28,-0.12 0.18,-0.17 1,-0.06 -1.52,-0.46 -1.24,-1.34 -1,-0.9 -0.86,-0.42 0.83,-1.55 h 0.36 0.31 l 0.65,-0.47 1.18,-1.19 0.82,-1.19 0.56,-1 0.07,-0.27 v -0.34 l 0.31,-2.79 0.2,-1 0.15,-0.2 0.92,0.29 0.49,0.26 0.44,0.35 0.85,0.93 0.56,0.26 0.29,0.06 0.28,-0.12 0.34,-0.38 -0.09,-1.28 -0.45,-1.25 v -0.61 l 0.14,-0.28 0.38,-0.29 0.19,-0.24 0.11,-0.29 -0.08,-0.26 -0.79,-0.35 -0.22,-0.17 -0.15,-0.52 0.07,-0.32 0.28,-0.5 v -0.4 -0.26 l -0.11,-0.21 -0.8,-0.69 -1,-0.56 -0.4,-0.34 -0.56,-1.17 -0.8,-0.72 -0.85,-0.61 -0.15,-0.23 v -0.32 l 0.49,-0.79 0.76,-1 0.78,-0.73 0.4,-0.26 0.36,-0.41 0.11,-0.23 0.24,-1 0.36,-0.4 0.27,-0.06 1,0.52 h 0.27 l 0.19,-0.17 v -0.32 l -0.4,-0.64 -1.52,-1.51 -1.61,-1.31 -0.2,-0.2 -0.24,-0.43 -0.07,-0.29 0.07,-0.32 0.69,-1.2 -0.2,-0.49 -0.11,-0.55 -0.2,-0.46 0.13,-0.67 0.15,-0.2 1.14,0.46 1.52,1.07 0.56,-0.14 0.17,-0.23 0.4,-0.35 0.89,-0.47 1.18,-0.2 1.05,0.09 0.6,-0.09 0.18,-0.17 0.2,-0.61 -0.09,-0.53 -0.11,-0.29 -0.16,-0.17 -0.08,-0.23 -0.43,-0.35 -0.29,-0.44 0.18,-0.23 0.46,-0.23 0.31,-0.06 0.67,0.09 0.81,0.32 h 0.64 l 0.31,-0.12 1.14,0.44 0.71,0.08 0.47,0.29 0.36,0.7 0.19,0.23 0.65,0.47 0.81,0.34 0.3,0.09 h 0.3 l 0.2,-0.14 0.15,-0.26 -0.11,-0.15 -0.15,-0.35 -0.16,-0.2 -0.15,-0.52 -0.25,-0.44 -1,-1.22 v -0.35 l 0.38,-2 0.15,-0.23 0.4,-0.35 0.58,-0.12 0.11,-0.26 v -0.64 l -0.11,-0.26 -0.16,-0.17 -0.6,-0.21 -0.63,-1.1 -0.35,-0.09 h -0.64 l -0.19,-0.17 -0.2,-0.5 -0.06,-0.61 -0.12,-0.49 -0.24,-0.49 v -0.29 l 0.09,-0.29 0.65,-0.9 -0.13,-0.52 -0.6,-0.55 -0.3,-0.76 -0.13,-0.49 v -1.25 l 0.07,-1.05 0.13,-0.64 v -0.37 l 0.09,-0.26 0.18,-0.09 1.63,0.43 h 1 l 0.73,-0.32 1,-1.19 0.51,-0.3 1.29,-0.4 1.14,-0.26 h 0.29 l 0.22,-0.18 0.09,-0.35 m -33,-117.13 1.43,1 1.42,1.22 c 0,0 0.5,1.11 0.71,1.62 0.21,0.51 0.71,1.22 0.6,1.73 -0.11,0.51 0.71,0.71 0.71,1.62 a 1.43,1.43 0 0 1 -1.31,1.42 c -0.51,0 -2,1.12 -2.84,1.62 -0.84,0.5 -0.71,1.22 -0.31,1.93 0.4,0.71 -0.91,2.23 -1.11,2.64 a 0.9,0.9 0 0 0 0.1,1.11 c 0.3,0.41 0.91,1.52 1.52,2.54 0.61,1.02 0.1,1.42 -0.91,1.42 -1.01,0 -0.82,0.4 -0.41,1 0.41,0.6 0.91,0.92 2.64,1.42 1.73,0.5 0.4,1.42 -0.21,1.63 -0.61,0.21 -0.2,1.52 0.51,2.23 0.71,0.71 0.91,-0.61 0.91,-0.61 a 9,9 0 0 1 1.42,0.1 8,8 0 0 1 1.93,1.42 13.33,13.33 0 0 0 3.25,1.32 c 0,0 -1.22,0.81 -2,1.32 -0.78,0.51 -1.12,2.33 -1,2.84 0.12,0.51 0.21,2.94 0.21,2.94 h 1.62 a 3.32,3.32 0 0 1 1,0.81 c 0.41,0.51 2.13,-0.4 2.13,-0.4 a 8.32,8.32 0 0 0 1.22,-0.92 c 0.41,-0.4 0.31,-0.91 1.22,-0.91 0.91,0 0.71,-0.2 1.93,-0.2 a 23.28,23.28 0 0 0 2.63,0.2 9,9 0 0 1 2.93,0.49 l 0.4,1 -0.09,0.72 -0.45,0.7 -0.22,0.15 h -0.39 l -0.58,-0.2 -0.22,0.2 -0.59,0.93 -0.48,1 -0.19,0.26 -0.57,1.3 -0.56,1 -0.62,1.33 -0.16,0.64 -0.09,0.7 -0.46,1.07 -0.43,0.67 -0.8,0.76 0.08,0.29 0.52,0.58 0.09,0.23 -0.09,0.61 -0.56,0.55 -1.25,1 -0.27,0.55 v 0.32 c 0,0 -1.08,-0.55 -1.08,-0.9 a 2.35,2.35 0 0 0 -0.15,-0.92 5.79,5.79 0 0 0 -1.83,-0.61 c -0.91,-0.25 -1.27,-0.4 -2.74,-0.71 a 8.61,8.61 0 0 0 -2.94,-0.1 c -0.86,0.05 -1.12,1.17 -0.81,1.83 0.31,0.66 0,0.86 -0.86,1.11 -0.86,0.25 -0.51,0.61 -0.31,1.32 a 5.44,5.44 0 0 1 0.31,1.58 2.2,2.2 0 0 1 -1.17,2.48 25.1,25.1 0 0 0 -2.49,2 2.39,2.39 0 0 0 -1.11,2 c 0,0.71 -1.07,0.86 -1.07,0.86 0,0 -0.05,3.7 -0.1,4.31 -0.05,0.61 -0.76,1.42 -1.06,1.37 -0.3,-0.05 -1.78,-0.1 -1.78,-0.1 a 12.22,12.22 0 0 0 -1.17,1.37 3.52,3.52 0 0 1 -1.77,1 l -0.07,2.89 1,0.56 0.44,0.34 0.38,0.09 0.58,-0.12 0.26,0.09 0.16,0.23 0.07,0.29 0.33,0.67 0.4,1.05 0.16,0.14 0.24,0.5 v 0.34 l -0.15,0.24 -0.09,0.29 0.63,0.17 0.26,0.12 0.16,0.17 0.85,1.34 0.39,1 -2,1.46 a 14.65,14.65 0 0 1 1.83,1.83 c 0.3,0.5 0.2,0.4 -0.3,0.71 -0.5,0.31 -0.21,0.6 0.3,0.91 a 1.18,1.18 0 0 1 0.51,1.52 c -0.31,0.51 0.2,1.12 0.2,1.12 l 1.12,2.13 -1.32,1.52 1.72,2.23 a 4.91,4.91 0 0 0 1.62,0.81 c 1,0.31 0.92,-0.51 0.61,-1.11 -0.31,-0.6 0,-0.82 0.71,-1.32 a 1.24,1.24 0 0 1 1.73,0.2 2.75,2.75 0 0 0 2.53,0.1 c 0.51,-0.4 0.51,0.61 0.71,1.22 0.2,0.61 0.11,1 0.51,1 0.4,0 0.51,-0.1 1.42,0.41 a 14.26,14.26 0 0 0 2.13,0.91 l -0.91,1.83 2.33,-0.31 0.71,-0.81 0.61,1.12 2.33,-1.32 0.31,4.16 c 0,0 2.33,0.2 3.34,0.2 a 1.84,1.84 0 0 0 1.12,-0.2 27.17,27.17 0 0 0 2.74,-1.63 l 3.35,1.12 -0.21,3.14 2.16,0.27 -0.11,0.26 v 0.32 l 0.27,0.47 0.16,0.14 0.36,0.7 v 0.26 l -0.05,0.38 -0.29,0.46 -0.71,0.76 -0.27,0.52 v 0.61 l 0.07,0.29 0.12,0.2 0.33,1.4 0.36,0.37 0.82,0.32 0.25,0.18 0.35,0.67 0.09,0.26 v 0.32 l -0.2,0.58 -0.13,0.69 v 0.35 l 0.08,0.5 0.39,0.72 0.81,1 0.11,0.26 0.19,0.84 0.3,1.05 1.46,-0.4 3.45,1.53 0.5,-2.24 -0.81,-0.91 c 0,0 3.45,-2.84 4,-3.24 a 1.58,1.58 0 0 1 1.62,-0.31 1.37,1.37 0 0 1 0.81,0.81 l -0.71,2.64 1,1.12 2.13,0.5 1.31,1.83 2.34,-0.81 0.91,0.5 0.51,-1.42 0.91,0.61 1.62,-0.3 0.11,-1 1.92,-0.1 0.71,0.92 a 4.19,4.19 0 0 1 0.41,1.92 h 2 l 0.6,-1.42 c 0,0 3.76,0.51 4.27,0.61 a 7.35,7.35 0 0 1 1.72,0.91 3.53,3.53 0 0 0 1.72,0.41 11,11 0 0 0 2.66,-1 c 0.61,-0.31 0.41,-1.22 0.31,-1.93 -0.1,-0.71 0.81,-1 1.42,-1.32 a 12.55,12.55 0 0 1 1.92,-0.61 l -0.1,-0.71 2.13,-1.82 1.22,-1.53 0.92,-1.06 0.6,-0.12 0.8,0.35 0.16,0.17 0.73,0.47 h 0.35 l 1.06,-0.35 h 0.66 l 1.6,0.43 0.47,-0.17 0.4,-0.44 0.41,-0.66 0.37,-0.44 0.56,-0.52 0.29,-0.09 0.25,0.09 0.24,0.2 h 0.31 l 0.23,-0.12 0.2,-0.11 0.56,-0.64 0.29,-0.44 0.39,-0.32 0.52,-0.17 1.87,0.2 1,-0.4 0.5,-0.34 v -0.19 l 0.06,-0.35 0.2,-0.63 0.29,-1.31 0.23,-0.58 0.29,-0.47 0.93,0.21 h 0.31 l 0.16,-0.61 0.11,-0.73 0.25,-0.06 0.11,0.21 0.36,0.35 0.28,-0.09 1.34,-1.25 0.27,-0.06 1.64,0.5 0.65,0.08 2,0.5 0.49,0.26 0.6,0.52 0.27,0.44 0.29,-0.09 0.19,-0.23 0.86,-0.53 1.09,-0.35 0.4,-0.66 0.24,-0.18 1.63,0.41 0.8,-0.26 0.4,-0.32 0.15,-0.21 0.09,-0.34 v -0.59 l -0.11,-0.6 0.07,-0.38 v -0.29 l 0.25,-0.87 0.36,-0.44 0.75,-0.35 h 0.31 l 0.61,0.21 0.2,0.14 h 0.31 l 1.38,-0.81 0.25,-0.09 h 0.33 l 0.85,0.35 0.46,0.35 0.14,0.2 0.26,0.15 0.9,0.93 0.46,0.29 0.31,0.14 0.83,-0.23 1.16,-1 1.34,-0.82 0.24,-0.05 1.38,-0.79 0.22,-0.23 0.56,-1.34 0.58,-0.55 1.14,-0.64 0.55,-0.58 6.17,-3.25 h 0.91 l -0.1,1.63 1,0.4 0.5,-1.72 c 0,0 1.53,0.41 2.13,0.51 0.6,0.1 1.63,-0.61 1.63,-0.61 a 17.42,17.42 0 0 0 2.84,-0.31 l 2.33,-0.91 a 6,6 0 0 1 -1,-0.91 c -0.31,-0.41 -1.93,-0.92 0.2,-1.52 2.13,-0.6 4.36,-1.53 4.36,-1.53 l 2.48,-0.6 0.71,0.14 h 1 l 1.46,-0.2 3.89,-0.56 1.24,-0.52 0.69,-0.44 0.8,-0.23 2.5,0.35 0.27,0.12 1.07,0.06 1,0.26 0.53,0.29 0.83,0.64 1.14,1.13 0.93,0.61 0.56,0.23 0.33,0.09 h 0.62 l 2.23,-0.53 0.71,-0.35 0.38,-0.43 0.23,-0.52 0.46,-1.54 0.25,-0.55 0.49,-0.64 0.64,-0.53 1,-0.37 h 1.33 l 0.22,-0.11 0.6,-0.55 0.54,-0.15 1,0.23 0.27,0.15 0.59,0.87 0.32,0.7 0.22,0.14 h 0.35 l 0.21,-0.14 0.46,-0.64 0.62,-1.37 0.31,-0.43 0.38,-0.44 0.58,-0.49 0.51,-0.23 1.57,-0.09 0.8,-0.15 1.56,-0.61 1.44,-1.07 0.4,-0.37 0.43,-0.26 1.6,-1.43 1.07,-1.13 0.8,-0.73 0.44,-0.32 1,-0.4 0.63,-0.5 0.52,-0.58 0.88,-1.48 0.81,-0.67 0.71,-0.37 0.56,-0.53 0.31,-0.43 1.09,-0.76 0.82,-1.1 0.43,-0.29 1,-0.41 0.39,-0.4 0.12,-0.32 0.56,-0.53 0.91,-0.17 0.36,-0.35 0.55,-0.14 0.32,0.08 0.57,0.49 0.7,0.47 0.33,0.15 h 0.69 l 0.49,-0.2 0.16,-0.23 0.26,-1 0.12,-1.28 0.09,-0.32 0.16,-0.23 0.28,-0.06 2,0.56 0.92,-0.06 0.95,-0.5 0.61,-0.49 1.45,-1.62 0.88,-0.56 0.38,0.06 0.23,0.18 0.51,0.61 0.22,0.43 0.24,0.15 0.54,-0.15 0.62,-0.57 0.25,-0.42 0.2,-0.66 0.07,-0.67 0.22,-0.55 0.69,-0.41 1.07,-0.24 1.22,-0.25 a 4.64,4.64 0 0 1 0.65,-2.82 c 0.81,-1 0.41,-1.22 0.81,-2.64 0.4,-1.42 0,-3 1.83,-4.26 1.83,-1.26 2.44,-2 2,-4.46 -0.44,-2.46 -0.81,-4.06 -2,-4.87 -1.19,-0.81 -3.25,-2 -3.45,-4.26 -0.2,-2.26 -1,-4.46 -2.43,-5.48 -1.43,-1.02 -3.25,-2 -3.25,-2 l -0.4,-3.85 c 0,0 0.6,-0.2 1.42,-0.41 0.82,-0.21 2,-1.62 0.4,-3.45 -1.6,-1.83 -1.42,-3.44 -2.84,-2.63 -1.42,0.81 -2.84,1.42 -3,0.2 a 22.94,22.94 0 0 0 -1.62,-4.06 3.37,3.37 0 0 0 -1.22,-1 3.08,3.08 0 0 1 -1.22,-1.22 l 3.65,-2.64 c 0,0 -0.61,-2.23 0.61,-2.23 1.22,0 1.83,0.2 2.64,-0.61 0.81,-0.81 2.64,-0.2 3.24,-1.42 a 5.56,5.56 0 0 1 1.42,-1.82 l 2.24,1.21 a 3,3 0 0 0 2,-0.4 23.94,23.94 0 0 0 2,-1.83 l 1,0.81 a 4.2,4.2 0 0 0 2,-2.43 c 0.4,-1.62 0.61,-2.84 0.61,-2.84 l -0.53,-2.3 m -350.62,90.91 -1.09,-0.15 -0.82,0.23 h -0.67 l -1.34,-0.61 -1.4,-0.08 -0.2,-0.18 -0.09,-0.58 v -0.64 L 939,308 l -0.26,-0.15 -0.42,0.32 -0.54,0.21 -0.51,-0.26 -0.31,-0.38 -0.42,-0.7 -0.07,-0.26 -0.38,-0.73 -0.31,-0.37 -0.32,-0.09 -2.67,0.12 -1.62,0.17 -0.56,0.09 -1.65,0.49 h -0.63 l -1,-0.2 -1.51,-0.49 -1.05,-0.53 -0.33,-0.09 -0.41,0.33 -0.31,0.46 -0.35,0.35 -1.09,0.69 -1.38,0.5 h -1.05 l -0.33,-0.09 -0.34,-0.38 -0.09,-0.26 v -0.93 l -0.26,-0.14 -0.61,-0.12 -0.09,-0.32 v -1.34 l -0.22,-0.52 -0.16,-0.17 -0.25,-0.15 h -0.35 l -0.23,0.12 -0.38,0.35 -0.62,0.9 -0.2,0.14 -0.31,0.06 v -0.67 l -0.09,-0.55 -0.34,-1 -0.57,-1.22 v -0.93 l -0.22,-0.46 -0.72,-0.81 -0.6,-0.82 -1.07,-1.82 v -0.27 l -0.56,-1.19 -0.27,-0.78 -0.13,-0.9 v -0.38 l -0.15,-0.55 -0.07,-0.06 v -0.37 l -0.13,-0.58 -0.13,-0.27 -0.09,-0.55 -0.31,-0.75 -0.22,-0.76 0.11,-1.07 v -0.67 l -0.13,-0.93 -0.53,-1.57 -0.23,-1.07 0.12,-0.26 0.24,-0.09 h 1 l 0.76,-0.35 0.25,-0.2 0.28,-0.44 V 282 l 0.42,-0.75 0.18,-0.18 h 1 l 0.24,-0.09 0.27,-0.55 0.31,-0.41 0.54,-0.15 0.22,-0.14 0.15,-0.29 -0.22,-0.52 -0.14,-0.15 -0.33,-0.06 -1,0.06 -0.64,-0.17 -0.25,-0.15 -0.22,-0.76 -0.06,-1.3 v -0.29 l -0.38,-0.38 -0.29,-0.12 -1.31,-0.26 -0.21,-0.17 -0.31,-0.41 -0.31,-0.72 -0.18,-1.19 0.14,-1 1.62,-0.93 0.87,-0.26 2.65,0.58 1.88,-0.15 0.26,-0.17 0.09,-0.26 v -0.7 l -0.09,-0.58 v -0.35 l -0.27,-1.1 -0.22,-0.15 -0.92,-0.29 -0.73,-0.4 -0.63,-0.47 -0.73,-0.75 -0.13,-0.23 -0.38,-0.35 -0.54,-0.23 -1,-0.24 -0.77,-1.07 -0.43,-0.38 -0.47,-0.23 -1,-0.18 -0.16,-0.23 0.07,-0.32 0.87,-1 0.27,-0.55 v -0.32 l -0.13,-0.58 -0.43,-0.61 -0.26,-0.52 -0.27,-1.08 -0.47,-0.61 -0.78,-0.4 -0.51,0.23 -0.4,0.51 -0.51,0.91 0.15,1.62 -1.16,0.26 v -2.39 l -1,-3.67 v -0.29 l 0.08,-0.32 0.34,-0.78 0.31,-0.41 0.44,-0.81 0.11,-0.29 0.05,-0.67 -0.05,-0.61 -0.31,-1.07 -0.13,-0.21 -0.18,-0.58 v -0.38 l 0.2,-0.46 0.67,-0.49 0.15,-0.26 v -0.35 l -0.24,-0.47 -0.76,-0.43 -0.26,-0.41 -0.09,-0.29 -0.2,-1.45 -0.36,-1.36 -0.22,-0.5 -0.31,-0.4 -1.28,-1 -0.4,-0.67 -0.13,-0.29 v -0.55 l 0.11,-1.42 0.11,-0.67 -0.06,-0.61 -0.22,-0.23 -0.78,-0.32 -0.16,-0.2 v -0.38 l 0.1,-0.2 0.18,-0.3 0.6,-0.49 0.23,-0.49 c 0,0 0.91,-1.29 1.42,-1.39 0.51,-0.1 3.75,-1.12 4.57,-1.22 0.82,-0.1 2.13,-0.71 2.23,-1.32 0.1,-0.61 0.2,-2.64 0.2,-3.55 A 1.88,1.88 0 0 0 908.82,224 c -0.41,-0.41 -1.62,-1.42 -1.62,-1.42 a 4.42,4.42 0 0 0 -0.1,-1.93 c -0.31,-0.71 -1.12,-1.83 -0.31,-2.33 0.81,-0.5 2.33,-1.22 1.62,-2.74 -0.71,-1.52 -1.62,-2.94 -1.11,-4 a 4.46,4.46 0 0 0 0,-3.24 7.27,7.27 0 0 0 -1.52,-2.34 26.78,26.78 0 0 0 -2.74,-2.13 2.55,2.55 0 0 1 -1.12,-1.32 c -0.1,-0.4 0,-0.81 -0.3,-1.21 -0.3,-0.4 -1.52,-1.63 -1.52,-1.63 l -0.2,-1.3 m -49.9,159.1 5.32,1.4 1.62,1.53 4.46,0.81 9.13,-4.16 1.42,1.22 2,0.2 0.1,-1.83 1.12,-0.2 0.4,-1.12 1.22,-1 -1,-3.75 c 0,0 0.71,-1.42 1.62,-1.63 a 4.84,4.84 0 0 0 1.52,-0.61 l -0.2,-3 1.11,-0.71 0.41,1.93 a 2.54,2.54 0 0 0 1.32,-0.61 l 1.22,-1.22 1.72,-0.2 -0.1,0.61 h 0.71 c 0,0 0.91,-1.32 1.32,-1.83 0.41,-0.51 1.92,-2 1.92,-2 l -0.91,-1.82 c 0,0 1.42,-0.2 1.73,-0.71 A 2.29,2.29 0 0 1 890.9,338 c 0.51,0 1.42,-0.71 1.32,0.4 -0.1,1.11 -0.2,1.42 0.4,1.73 a 1.11,1.11 0 0 0 1.53,-0.71 c 0.1,-0.61 0.2,-1.73 0.2,-1.73 l -1.12,-0.3 c 0,0 1,-1.42 1.22,-1.83 a 2.89,2.89 0 0 0 -0.1,-1.42 l 1.62,-0.2 -0.91,-0.71 0.4,-0.81 c 0,0 1.12,0.3 1.53,0 0.41,-0.3 1.72,-1.12 1.72,-1.12 a 0.69,0.69 0 0 0 0,-0.91 1.88,1.88 0 0 0 -0.81,-0.51 l -0.1,-1.11 -2.44,-0.82 -1,-2.33 -2.94,0.31 0.3,-1.42 -0.81,-0.41 -1.12,0.91 -1.52,-1.82 -1.42,0.1 -0.1,-1.12 -2.43,-1.82 -1.63,-4.87 a 3.44,3.44 0 0 1 1.42,-0.31 c 0.82,0 -0.1,-1.32 -0.6,-1.32 a 10.57,10.57 0 0 1 -1.92,-0.46 v -0.11 l 0.5,-0.61 0.26,-0.15 0.74,-0.78 0.55,-1 h 0.23 l 0.62,0.18 h 0.35 l 1.27,-0.59 0.28,0.06 0.89,1 1.17,-0.32 1.23,-0.14 0.66,0.14 2.48,0.12 1.36,-0.35 1.31,-0.58 1.31,-0.93 0.49,-0.52 0.72,-1.17 0.67,-0.75 1.15,-0.35 0.47,-0.26 0.18,-0.23 -0.18,-0.5 -0.38,-0.32 -0.13,-0.26 0.16,-0.58 0.19,-0.2 0.47,-1.08 v -0.93 l 0.14,-0.69 0.58,-1.28 0.31,-0.49 0.35,-0.82 v 0.15 l 0.55,-1.31 0.29,-0.52 0.2,-0.55 0.31,-0.44 0.21,-0.17 0.28,-0.09 0.63,-0.06 1,0.18 0.59,-0.12 0.1,-0.29 0.08,-0.73 0.12,-0.23 0.19,-0.14 0.32,0.08 0.62,0.64 0.65,0.35 0.39,-0.4 0.79,-1.51 1.11,-1.17 0.16,-0.26 m -125.44,240.3 1.1,-0.05 0.27,0.14 h 0.3 0.72 l 0.34,-0.75 0.16,-0.9 0.4,-0.73 0.37,-0.4 0.41,-0.29 0.26,-0.09 0.61,-0.09 h 1.31 l 0.51,-0.23 0.34,-0.35 0.73,-1.51 0.6,-0.81 1.74,-0.7 0.62,-0.49 0.69,-0.72 0.78,-0.67 1.85,-1.37 0.53,-0.17 h 0.28 l 0.31,0.12 0.35,0.35 v 0.35 l -0.16,0.93 0.05,0.28 0.36,0.35 0.29,0.09 0.62,-0.06 1.18,-0.52 0.81,-0.26 0.62,-0.09 h 0.69 l 0.47,0.26 0.27,0.41 0.17,0.55 0.12,0.23 0.39,0.35 0.79,0.29 0.22,0.17 0.82,1 0.56,0.15 0.42,-0.29 0.11,-0.32 0.11,-0.64 v -2.29 l 0.14,-1.05 0.26,-0.52 0.27,-0.32 0.74,-0.35 h 1.35 l 0.05,-0.32 -0.05,-0.58 -0.19,-0.56 -0.11,-0.55 -0.07,-1.33 0.44,-1.46 0.11,-0.61 0.09,-0.25 0.16,-0.21 h 0.32 l 0.69,0.47 h 0.29 l 0.53,-0.2 h 0.33 l 0.49,0.21 0.67,0.43 0.32,0.09 h 0.29 l 0.58,-0.49 0.26,-0.12 0.7,0.41 0.82,0.66 0.27,0.09 0.26,-0.09 0.2,-0.17 0.12,-0.26 2.4,2.58 1.85,1.8 0.82,0.64 0.52,0.26 0.34,0.27 -0.5,0.84 -0.15,0.58 0.06,0.26 0.14,0.26 0.22,0.14 0.56,0.15 0.66,-0.06 0.45,-0.23 0.92,-0.75 v -0.62 l 0.07,-0.32 0.27,-0.87 0.26,-0.49 0.36,-0.35 1.27,0.26 0.2,-0.08 0.25,-0.56 v -0.32 l 0.29,-0.81 0.56,-0.84 0.4,-0.41 1,-0.35 0.29,-0.4 0.38,-0.76 0.42,-1.1 0.25,-0.5 v -0.32 l -0.12,-0.2 -0.82,-0.67 -0.12,-0.23 v -0.29 -0.32 l 0.33,-0.4 0.58,-0.09 1.72,0.2 0.62,-0.06 0.51,-0.58 1.11,-0.63 0.81,-0.26 1.53,-0.15 0.34,-0.06 0.19,-0.12 0.08,-0.28 v -0.29 l -0.1,-2.3 0.38,-1.1 0.29,-0.46 0.54,-1.75 0.84,-1.33 0.12,-0.26 0.06,-0.29 -0.11,-0.52 -0.46,-0.64 -0.23,-0.18 -1,-1.1 v -0.32 l 0.26,-0.15 0.78,-0.2 0.74,-0.32 0.4,-0.26 0.25,-0.49 0.19,-2.56 0.43,-0.29 0.43,-0.69 0.17,-0.2 0.23,-0.12 0.36,0.06 0.39,0.35 0.07,0.26 1,-0.38 1.67,-0.47 0.16,-0.17 0.2,-0.58 0.14,-0.2 0.66,0.08 0.56,0.18 h 0.29 l 0.15,-0.26 0.21,-0.93 0.08,-1.42 0.07,-0.33 0.34,-0.32 0.8,-0.29 v -0.32 l -0.62,-0.49 -0.86,-0.93 -0.09,-0.26 v -0.29 l 0.27,-0.52 0.29,-0.09 0.54,-0.08 1.45,0.14 0.26,-0.05 1,0.08 0.06,0.32 v 0.32 l 0.07,0.9 0.07,0.29 0.22,0.2 1.47,-0.2 h 0.37 l 0.56,0.18 1.4,1.16 0.76,0.35 0.2,0.17 1.65,0.64 0.6,0.26 1.25,-0.15 0.33,0.06 -0.29,2.09 -0.33,1.57 -0.11,1 0.63,0.46 0.57,0.18 0.27,-0.12 0.12,-0.2 0.26,-0.09 h 1 l 0.67,0.12 0.16,0.14 0.18,0.56 0.29,1.1 v 0.15 l 0.68,0.43 0.84,0.35 0.56,0.84 0.62,0.49 0.39,0.67 c 0,0 1.37,-0.32 0.87,-1 -0.5,-0.68 -0.92,-1 0,-1.12 a 2.09,2.09 0 0 0 1.62,-0.91 c 0.3,-0.41 0.2,-0.71 1.22,-0.61 1.02,0.1 1.32,0.2 1.82,-0.2 0.5,-0.4 0.61,-0.51 0.51,-1.22 -0.1,-0.71 0.31,-1.22 0.31,-1.72 a 4.7,4.7 0 0 1 0.71,-1.73 1.66,1.66 0 0 0 0.2,-1.32 c -0.1,-0.4 -0.2,-1.32 0.51,-1 0.71,0.32 0.91,0.3 1.31,0 a 2.84,2.84 0 0 0 0.61,-0.61 v -1 m -121.58,-87.96 0.59,-1.11 h 1.52 l 2.54,-2.33 1.62,1.62 c 0.41,0.4 1,0.91 1,0.91 l 1.82,0.41 c 0.41,0.1 1.22,0.1 1.42,-0.31 a 3.9,3.9 0 0 0 0.31,-0.91 l 1,0.2 c 0,0 0,-1.92 0.61,-2.23 0.61,-0.31 0.81,-0.4 1.42,-1.42 a 24.46,24.46 0 0 0 1.42,-4.06 l 0.41,-1.82 -0.92,-1.12 2,-2.23 1.73,-0.3 0.1,-1.32 1.42,-0.1 a 5.78,5.78 0 0 1 -0.71,-2.34 15.12,15.12 0 0 0 0.1,-1.62 l 1,-0.3 -0.3,-1.83 1.22,0.1 1,1.73 a 5.42,5.42 0 0 1 0.81,-0.82 c 0.51,-0.4 0.71,-1.72 -0.1,-2 -0.81,-0.28 -1.42,-0.92 -1,-1.63 0.42,-0.71 1.42,-2.74 2.33,-1.32 0.91,1.42 1.12,1.63 1.83,1.52 0.71,-0.11 1.32,-0.1 1.21,0.82 -0.11,0.92 -0.4,1 0,1.62 0.4,0.62 1,0.3 1.93,-0.51 0.93,-0.81 2,-1.11 2.44,-0.2 a 11.57,11.57 0 0 0 2,2.43 c 0,0 7.61,-3.45 10.45,-4.46 2.84,-1.01 5.18,-1.83 5.58,-2 l 1,-0.51 v -1.31 a 3,3 0 0 1 -1.63,-1 c -0.4,-0.71 -1.42,-2.43 -1.42,-2.43 v -1.52 l 0.41,-0.92 c 0,0 1.52,1.12 2,1.52 0.48,0.4 0.81,0.51 1.92,0.31 1.11,-0.2 1.22,-0.41 1.42,-1 a 24.32,24.32 0 0 1 1.32,-2.43 l 2.95,-1.62 c 0,0 1.11,0.91 1.72,0.2 a 3.54,3.54 0 0 1 2.13,-1.32 4,4 0 0 0 2,-0.51 7,7 0 0 0 1.32,-1 l 1.82,2.84 c 0,0 0.61,0.81 1.22,0.51 A 2,2 0 0 1 828,364 l 0.71,0.81 3.14,-2 2.13,-0.1 0.11,1.21 a 12,12 0 0 0 2.94,-0.4 5.39,5.39 0 0 0 1.11,-1.42 c 0.31,-0.51 0.51,-0.71 0.31,-1.22 -0.2,-0.51 -0.81,-0.61 -0.1,-1.12 0.71,-0.51 2.13,-2 1.31,-2 -0.82,0 -1,-0.41 -0.81,-0.82 a 1.52,1.52 0 0 1 1.32,-0.6 c 0.51,0 1.42,-0.51 0.81,-1 -0.61,-0.49 -0.61,-1.42 0.21,-1.52 a 14.49,14.49 0 0 0 2.63,-0.91 v -2.34 l 3.05,-1.21 0.71,1.11 2.43,0.41 0.9,-1.08 0.17,0.24 0.18,0.46 0.38,1.71 v 1 l -0.12,0.64 -0.38,1 -1.14,2.65 -0.78,2.65 v 0.29 l -0.16,1 v 0.67 l 0.14,0.9 0.22,0.49 0.06,0.3 -0.06,0.23 -0.51,0.69 -0.09,0.24 0.13,0.26 0.45,0.29 0.31,0.37 0.47,1 v 0.21 l 0.31,0.81 0.22,0.87 0.13,1.1 v 0.73 l -0.36,2 v 0.38 0.64 l 0.14,1.25 v 0.35 l -0.3,0.4 -0.87,0.58 -0.09,0.29 0.09,0.23 0.47,0.67 -0.09,0.2 -0.51,0.29 h -0.27 l -0.2,0.21 0.34,0.72 v 0.35 l -0.38,0.29 -0.62,0.18 h -0.94 l -1.16,0.26 -0.38,0.4 -0.15,0.58 v 0.32 l 0.15,0.58 0.12,0.26 0.31,0.35 1.07,0.44 0.87,0.67 0.8,0.29 0.18,0.84 -0.16,0.2 -0.87,0.2 v 0.21 l 0.25,0.49 0.28,0.79 0.47,0.93 0.31,0.43 0.69,0.23 -0.06,0.47 0.11,2.26 -0.09,0.23 -0.2,0.21 -1,0.35 -0.38,0.46 -1,0.4 a 3.61,3.61 0 0 1 -1.83,-0.1 c -1.11,-0.3 -1.11,0.1 -1.72,0.31 a 2.73,2.73 0 0 1 -1.83,0.1 22.11,22.11 0 0 0 -2.43,-0.31 l 0.61,4.26 -1.21,0.26 -0.61,1.82 a 6.12,6.12 0 0 0 0.81,0.51 4.77,4.77 0 0 1 1,0.91 l -0.1,1.42 h -0.82 c 0,0 0.11,0.82 0.21,1.32 a 1.86,1.86 0 0 0 0.61,1.32 c 0.6,0.71 1,0.71 1,0.71 l 0.71,-0.3 0.61,1.11 -0.91,1.32 2.43,2.23 -1.12,1.93 1.22,1.93 1,0.3 -0.21,1.22 c 0,0 0.71,0.81 1.12,1.22 0.41,0.41 0.51,1.11 0.1,1.42 -0.41,0.31 0.2,0.81 0.2,1.42 a 2.34,2.34 0 0 1 -1.11,1.72 7.43,7.43 0 0 1 -2.64,0.41 l -0.51,-2.34 -1.52,1.83 a 1,1 0 0 0 0.41,0.91 c 0.5,0.41 3.24,2.54 3.75,2.84 0.51,0.3 2.33,1.63 2.33,1.63 l -0.91,2.13 v 1.52 l -0.91,0.1 v 1.42 c 0,0.61 0.95,1.22 0.95,1.22 l -0.09,0.7 -0.22,3 v 0.31 l -0.21,0.09 -0.89,1.15 -1.52,1.93 0.2,2.74 1.22,0.2 -1.12,1.52 a 13.32,13.32 0 0 1 0.51,2.54 V 449 l 0.91,0.21 -0.1,3.14 a 1.76,1.76 0 0 1 -0.91,0.71 c -0.71,0.31 -0.71,0.2 -0.71,0.71 a 2.25,2.25 0 0 1 -0.2,0.91 l -0.81,-0.1 -0.11,1.32 0.92,-0.1 a 12.22,12.22 0 0 1 0.5,1.32 c 0.11,0.4 0.21,0.61 0.61,0.61 a 5.75,5.75 0 0 0 0.92,-0.1 l 2.73,1.82 0.51,-2 a 10.3,10.3 0 0 1 1.93,0.81 c 0.61,0.41 1.52,1.12 1.52,1.12 v 1.12 a 2.11,2.11 0 0 1 0.91,0 c 0.51,0.1 0.51,0.5 0,0.71 a 4.69,4.69 0 0 0 -0.91,0.5 l 0.1,1 -1.32,0.1 a 16.89,16.89 0 0 0 0.1,2 c 0.11,0.4 0.51,1.72 0.51,1.72 l 1.22,0.21 a 9.62,9.62 0 0 0 1.42,1.31 4.18,4.18 0 0 0 1.93,0.92 c 0.81,0.1 1.52,0.3 2.13,-0.21 a 13.57,13.57 0 0 0 1,-0.91 c 0,0 1,-1.14 1.77,-0.57 l 0.09,0.26 0.36,0.38 0.2,1.45 0.06,0.29 0.12,0.26 0.15,0.87 v 0.64 0.35 l -0.2,0.52 -0.13,0.24 -0.39,0.4 -0.22,0.44 0.38,1.07 v 0.35 l -0.07,0.32 -0.82,1.43 -0.05,0.32 h 1.3 l 1.29,0.3 0.58,0.49 0.42,0.63 0.24,0.15 1.94,0.29 0.29,0.12 0.11,0.29 -0.05,0.63 c 0,0 1.6,0.23 2.11,-0.38 a 9.16,9.16 0 0 0 1,-1.82 l 0.21,-1.12 2.13,0.1 a 9.8,9.8 0 0 0 1.21,0.92 4.5,4.5 0 0 1 0.92,0.71 l 2.63,0.5 -0.81,1.12 a 10.41,10.41 0 0 0 1.32,1.52 15.2,15.2 0 0 0 1.62,1 l 0.1,1.21 0.92,0.31 c 0,0 0.1,1.72 0.1,2.33 a 5.78,5.78 0 0 1 -0.2,1.32 l -1.12,0.71 1.93,0.81 c 0,0 5.68,0.41 6.08,0.41 h 2.24 l -0.11,0.91 2.54,0.41 v 1.62 l 2,1.22 0.4,-0.71 1.42,0.3 v 2.54 l 3.15,1.62 -0.91,1.22 c 0,0 -1.93,-0.82 -2.34,1.11 -0.41,1.93 -0.4,2.13 0.21,2.64 a 1.48,1.48 0 0 0 1.21,0.51 6.17,6.17 0 0 0 1.42,-0.41 v 1.22 h 5.18 c 0.5,0 1,0.81 0.5,1.21 a 1.8,1.8 0 0 0 0.31,2.44 4.39,4.39 0 0 0 1.32,0.61 l -0.21,1.72 1.8,1.28 0.42,-0.23 0.85,-0.26 h 0.26 l 1.74,-0.38 h 0.9 l 0.6,0.17 0.37,0.32 0.41,0.67 0.46,1 0.31,0.46 0.05,0.21 0.29,0.4 0.6,0.53 H 914 l 0.48,-0.32 0.43,-0.18 h 0.31 l 0.27,0.12 0.36,0.7 0.4,0.32 h 0.31 l 0.46,-0.29 1,-0.41 1.08,-0.26 1,-0.08 h 0.34 l 0.26,0.11 0.63,0.5 0.33,0.37 0.29,0.06 0.36,-0.38 0.18,-0.52 0.27,-1.69 0.35,-0.43 0.18,-0.09 0.89,-0.17 h 0.62 l 0.53,0.26 0.43,0.64 0.2,0.17 0.24,0.12 h 0.69 l 2,-0.67 0.27,-0.17 0.89,-0.23 0.47,-0.06 1,0.18 0.56,-0.12 0.17,-0.23 0.07,-0.32 -0.05,-0.29 0.05,-0.76 0.13,-0.58 -0.06,-0.58 -0.16,-0.84 v -1.28 l 0.07,-0.7 0.29,-0.43 0.69,-0.38 0.52,-0.15 0.6,-0.4 0.26,-0.24 0.27,-0.08 2.12,-0.18 2.07,-0.32 0.55,0.21 1,0.55 1.89,0.73 1.8,0.58 1,0.17 1.41,-0.29 2.27,0.76 2.49,1 1,0.52 0.1,0.23 0.26,1.08 0.4,0.35 0.56,0.26 0.4,0.32 0.4,0.61 0.16,0.52 0.12,0.2 0.4,0.35 0.15,0.24 0.29,0.72 0.22,1.46 -0.09,0.75 -0.22,0.81 -0.58,1 -0.53,0.49 -0.65,0.44 -1.78,0.67 v 0.32 l 0.78,1.68 v 0.29 l -0.07,0.32 v 0.64 l 0.07,0.32 0.55,1.51 0.27,1.1 0.13,0.2 0.2,0.82 0.52,1.53 -0.08,0.24 v 0.91 l 0.91,0.4 a 3.11,3.11 0 0 0 2.44,-0.4 c 0.51,-0.51 1.42,-1.73 2.33,-0.82 l 1.73,1.73 c 0,0 1.11,-0.81 1.72,0.1 0.61,0.91 1.22,1.42 1.73,1.22 0.51,-0.2 1.11,-0.21 0.71,-1.12 -0.4,-0.91 -0.51,-1.82 0.71,-1.11 1.22,0.71 2.73,2.33 1.21,2.43 -1.52,0.1 -1.52,0.91 -1.92,1.52 -0.4,0.61 -1.12,1.32 -0.61,1.83 0.51,0.51 1,0.61 1.52,1.11 0.52,0.5 0.61,0.71 0.51,1.32 -0.1,0.61 -0.71,1.22 0.3,1.42 1.01,0.2 1.12,0.31 1.22,1.22 0.1,0.91 0.1,1.32 -0.21,1.72 -0.31,0.4 -1,1.32 -1,1.32 0,0 -0.71,0.31 -0.2,0.81 0.51,0.5 0.61,1 0.2,1.42 -0.41,0.42 -0.2,0.82 0,1.42 a 6.63,6.63 0 0 1 0.51,1.73 12.93,12.93 0 0 0 0.61,2.23 l 2,2 m 81.29,-119.08 -0.36,0.35 -0.11,0.26 -0.33,0.85 -0.09,0.61 0.08,0.58 0.4,1 0.25,1.72 0.13,0.23 0.27,0.14 1.32,0.09 0.6,-0.09 0.66,0.09 0.63,0.23 0.36,0.35 0.11,0.29 0.15,0.81 0.2,0.5 v 0.93 l -0.12,0.17 -0.84,0.2 -0.47,0.21 -0.23,0.2 -0.22,0.49 0.11,0.55 0.63,0.82 0.08,0.29 v 0.29 l -0.15,0.32 -0.35,0.35 -0.43,0.26 -0.17,0.17 -0.74,-1.09 c 0,0 -0.71,-0.2 -1.52,-0.5 a 2.49,2.49 0 0 0 -2.23,0.2 c -0.91,0.41 -5.78,1.93 -5.78,1.93 v 2.53 c 0,0.51 0,0.61 -0.51,1.22 a 4,4 0 0 0 -0.41,2.44 c 0,0.71 0.92,0.81 1.32,1.31 0.4,0.5 0.51,0.41 1,-0.1 0.49,-0.51 0.81,0.41 0.81,0.92 a 7.5,7.5 0 0 1 -0.61,1.82 l -0.81,-0.2 -0.31,2.64 c 0,0 -1.52,-0.41 -2,-0.61 a 5.32,5.32 0 0 0 -1.83,0 13.45,13.45 0 0 0 -1.83,0.2 1.74,1.74 0 0 1 0,0.81 c -0.1,0.41 -0.5,0.61 -1.11,0.71 a 0.91,0.91 0 0 1 -0.91,-0.4 l -1.12,1.11 -2.64,-1.82 -2.74,1.52 c 0,0 0.21,0.71 0.31,1.11 0.1,0.4 0,0.71 -0.31,1.83 -0.31,1.12 1.42,2.74 1.42,2.74 l -1.32,1.42 0.92,1.11 v 1.12 l -1.22,-0.1 0.71,1.82 h 1.12 a 11,11 0 0 0 1.11,2.54 2.4,2.4 0 0 1 0.57,1.15 l -0.4,0.33 -0.17,0.23 -0.12,0.26 -0.17,0.66 -0.52,0.62 -0.75,1.16 -0.39,0.32 -1,0.38 -0.18,0.18 -0.26,1.17 -1,2.07 -0.07,0.26 -0.86,1.37 -0.19,0.65 -0.14,-0.1 h -0.59 l -0.62,-0.55 -0.47,-0.58 -2.42,-1 h -0.32 l -0.53,0.15 -0.2,0.17 h -0.65 l -0.42,-0.29 -0.15,-0.2 -0.28,-0.12 -0.73,0.64 -1,0.43 -0.87,0.15 -0.6,-0.17 -0.43,-0.64 -0.24,-0.47 -0.26,-0.18 -0.63,0.27 -0.39,0.32 -0.4,0.67 -0.29,0.9 v 0.69 l -0.07,0.32 -1,0.85 -0.13,0.2 v 0.35 l 0.08,0.64 v 0.32 l -0.18,0.2 -0.24,0.12 h -0.33 l -0.49,-0.24 -0.38,-0.37 -0.27,0.08 -0.24,0.49 -0.09,0.7 v 1 l 0.11,1.25 -0.07,0.32 -0.13,0.2 -0.22,0.18 -0.47,0.63 -0.16,0.56 0.18,0.2 0.89,0.58 0.31,0.44 v 0.28 l -0.11,0.26 -0.45,0.24 -0.42,0.4 -0.05,0.24 0.18,0.2 0.09,0.23 0.07,0.29 v 0.61 l -0.11,0.64 -0.2,0.52 -0.22,0.24 -1.47,1 -0.89,0.53 -0.49,0.17 -0.44,0.32 -0.43,0.61 -0.11,0.32 0.07,0.26 0.33,0.38 0.23,0.15 0.64,0.14 0.27,0.15 0.16,0.2 v 0.23 l -0.31,2.06 -0.4,0.35 -0.23,0.09 -0.31,0.41 0.05,0.29 0.31,0.43 0.2,0.46 v 0.29 l -0.24,0.5 -0.62,0.52 -0.09,0.23 v 0.35 l 0.51,0.2 1,0.18 0.46,0.26 0.07,0.26 -0.18,0.29 -0.73,0.26 -0.33,0.41 -0.15,0.58 -0.12,1.39 0.11,0.61 0.16,0.46 0.47,0.93 0.47,1.28 0.08,1.51 -0.15,1 -0.27,1.33 v 0.67 l 0.07,0.26 0.47,0.61 v 0.29 l -0.09,0.26 -0.18,0.23 -0.69,0.32 -0.57,0.15 v 0.32 l 0.07,0.61 -0.2,0.93 -0.52,1 -1.22,2.94 -4.45,-1.78 -2.84,-2.13 v 0.91 l -1.72,0.81 0.4,0.61 c 0,0 1.42,-0.2 1.32,0.61 -0.1,0.81 -0.4,2 -0.4,2.54 a 4,4 0 0 1 -0.21,1.11 l -0.61,0.71 -2.84,-0.71 a 8.32,8.32 0 0 0 -1,2.44 c 0,0.71 -0.1,0.81 -0.51,1.11 a 1.47,1.47 0 0 1 -1.11,0.11 l -0.82,-0.51 -1.31,1 0.91,0.92 -0.41,1.72 a 11.16,11.16 0 0 1 1.93,1.93 7.62,7.62 0 0 1 0.1,2 c 0,0 -0.61,-0.11 -0.5,0.5 a 2.8,2.8 0 0 1 0,1 c 0,0 -0.72,0.5 -0.41,1.11 0.31,0.61 0.61,0.71 1,0.31 a 2,2 0 0 0 0.51,-0.92 c 0,0 1.42,0.61 1.62,-0.1 0.2,-0.71 0.61,-0.91 1.12,-0.5 0.51,0.41 0.61,0.81 0.2,1 -0.41,0.19 -0.5,1.73 -0.5,1.73 a 1.77,1.77 0 0 0 0.4,1.31 c 0.51,0.61 0.71,1 0.41,1.53 -0.3,0.53 -1.22,1.52 -0.71,1.82 0.51,0.3 0.61,0.41 0.4,0.81 a 23.24,23.24 0 0 0 -0.57,2.77 m 32.41,10.57 1.46,5.52 -2,1.12 0.13,3.47 -2.36,0.37 -0.74,1.41 1.11,1.74 1.49,-0.37 c 0,0 -0.49,3.09 -0.49,4 a 8.83,8.83 0 0 1 -1.12,2.9 1.36,1.36 0 0 1 -1.49,0.87 c -1,0 -0.91,0.74 -2.15,2.23 a 3.69,3.69 0 0 0 -0.37,3.51 11.16,11.16 0 0 1 -3,0.38 c -1.74,0 -1,0.37 -0.62,0.86 0.38,0.49 1,1.37 1,1.37 v 1.24 c 0,0 0.12,0 1,0.79 a 7.49,7.49 0 0 0 2.48,1.23 l -0.62,1.24 -1.61,-0.49 -0.25,1.61 -2.11,0.62 -0.12,1.37 -2.28,0.37 v 0.91 l 1.12,0.25 -0.12,1.24 0.62,2.72 1.53,0.5 -0.87,1.16 1.19,1.57 1.81,0.44 2.07,0.32 0.19,0.17 0.07,0.26 0.13,0.18 0.23,0.57 -0.31,1.31 -0.14,0.23 -0.28,0.87 -0.07,0.33 v 0.28 l 0.15,0.24 0.47,0.29 0.51,0.49 0.07,0.32 -0.06,0.67 0.08,0.26 1.12,1 0.09,0.23 -0.11,0.26 v 0.32 l 0.11,0.29 0.44,0.26 0.14,0.21 -0.16,0.23 -0.51,0.12 h -1.18 l -0.16,-0.14 -0.33,-1.11 -0.12,-0.14 -1.16,-0.41 h -0.33 l -0.87,0.49 -2.21,0.06 -0.59,-0.17 -1.47,-0.76 -0.61,-0.2 -1.38,-0.12 -0.56,0.06 -0.44,0.29 -0.16,0.2 -0.25,0.5 v 0.32 0.67 l 0.11,0.55 0.24,0.76 v 0.29 l 0.49,1.57 0.2,0.2 0.78,0.26 0.31,0.43 0.52,1.51 0.24,0.47 0.07,0.93 -0.2,0.12 h -1.23 l -0.24,-0.14 -0.61,-0.76 -0.31,-0.12 h -1 l -0.54,0.11 h -0.93 l -0.58,-0.17 -0.65,-0.49 -0.26,-0.09 h -0.27 l -0.23,0.52 -0.08,0.32 v 0.61 l 0.08,0.29 0.23,0.47 v 0.26 l 0.27,0.46 0.22,0.79 0.07,0.58 -0.07,1.36 -0.29,1.22 v 0.64 l 0.16,0.81 0.29,0.82 -0.11,0.67 -0.49,1.16 -0.6,1.16 -0.28,0.76 v 0.26 l 0.11,0.26 0.47,0.26 0.35,0.38 0.38,1.3 0.27,0.44 0.55,0.2 0.16,0.17 -0.18,0.24 -0.44,0.2 -0.2,0.17 -0.16,0.21 v 0.32 l 0.15,0.52 0.82,0.64 0.18,0.17 0.12,0.27 v 0.26 l -0.07,0.32 -0.27,1.28 v 0.32 l 0.07,0.23 0.24,0.2 0.5,0.21 h 0.66 l 0.16,0.21 0.22,1.13 v 0.55 l -0.09,0.26 -0.3,0.06 -1.54,-0.35 h -1 l -0.22,0.09 -0.27,0.46 -0.2,0.21 -0.22,0.08 -0.55,0.12 -0.89,-0.26 -0.25,0.08 -0.16,0.18 -0.24,0.52 -0.47,0.18 -0.38,-0.06 -0.22,0.11 -0.11,0.24 v 0.35 l -0.07,0.32 -0.48,0.23 -1.14,0.12 -1,1.17 -1.83,1.2 -1.29,1.3 -0.65,0.33 -1.4,0.2 -0.26,0.12 -0.38,0.32 h -0.56 l -1.13,-0.4 -1.37,0.32 -1.11,-0.41 -0.54,0.17 -0.29,0.44 -0.56,0.49 -1.69,0.32 -0.22,0.06 -0.22,0.17 -0.38,1.14 -0.26,0.49 -0.27,0.84 -0.24,0.52 v 0.59 l 0.11,0.29 1.2,1.24 0.07,0.26 -0.4,0.7 v 0.67 l -0.12,0.26 -1,0.78 -0.29,0.32 -0.63,1.31 v 1.94 l -0.09,0.66 m 92.82,47.68 a 2.69,2.69 0 0 1 0.35,-1.49 c 0.41,-0.51 1.42,-1 0.91,-2.23 -0.51,-1.23 -0.81,-1.22 -0.5,-1.83 0.31,-0.61 0.4,-0.81 0.1,-1.32 -0.3,-0.51 -1.22,-1.92 -1.93,-1.72 -0.71,0.2 -2.64,1 -2.64,1 v -1 l -2.73,-1.32 1.62,-0.61 a 11.27,11.27 0 0 1 2,-2.43 c 0.71,-0.41 1.72,-1 1.72,-1 l -1.93,-4.66 -1,0.1 -0.2,1.32 c 0,0 -1.83,-1.22 -2.23,-1.42 a 2.79,2.79 0 0 0 -1.32,0 c 0,0 -0.21,0.61 -0.71,0.4 -0.5,-0.21 -1.93,-0.81 -1.93,-0.81 a 14.22,14.22 0 0 1 -1.12,-2.53 c -0.4,-1.32 -1.11,-1.83 -0.81,-2.74 a 6.46,6.46 0 0 0 0.31,-1.83 l -2.74,-1.52 -2,0.3 -0.61,-1.11 -1,0.3 v 1.22 l -2.24,0.51 -0.4,-1.83 a 1.71,1.71 0 0 1 0.81,-0.91 c 0.61,-0.31 2,-0.51 2.13,-1 a 5.17,5.17 0 0 0 0.1,-0.91 L 1060,685 v -3.85 c 0,0 -4.77,1.42 -5.28,1.12 a 6.33,6.33 0 0 0 -1.62,-0.51 l 0.1,-1 a 6.86,6.86 0 0 0 1.22,-0.81 c 0.61,-0.51 0.91,-0.71 0.71,-1.11 -0.2,-0.4 -0.51,-1.22 -0.51,-1.22 l 0.61,-2.13 0.81,-1.32 1.62,-1.64 -0.23,0.35 v -0.32 h 0.25 l 0.27,-0.49 0.56,-0.53 v -0.23 l -0.18,-0.17 v -0.21 l 0.2,-0.14 0.58,-1 0.2,-0.12 0.54,0.09 0.26,-0.06 0.49,-0.61 h 0.27 l 0.56,0.23 h 0.87 l 0.78,-0.18 0.27,0.06 0.18,0.2 0.08,-0.26 -0.31,-2.12 v -1 l 0.15,-0.59 0.42,-1.16 0.38,-0.73 0.22,-0.58 0.22,-0.93 v -0.32 l 0.11,-0.28 h 0.3 l 0.28,0.38 0.41,1 1,-0.14 V 661 l 1.21,0.1 2.74,-0.91 0.21,-2 1.42,-0.3 0.1,-1.12 -1.52,0.1 -0.31,-1.11 1.62,-0.31 2.24,-2 1,0.41 1.52,-1.73 -1.93,-1 -2.63,-0.31 -3.25,-2.13 c 0,0 1.83,-0.2 2.23,-0.71 0.4,-0.51 1.22,-0.71 1.93,-1.42 0.71,-0.71 1.52,-1.42 1.52,-1.82 a 5.11,5.11 0 0 0 -0.4,-1.32 2.5,2.5 0 0 0 0.6,-1 c 0.11,-0.51 0.31,-1.22 0.31,-1.22 l 3,1.32 a 7.07,7.07 0 0 0 1.22,-0.1 c 0.41,-0.11 0.61,-0.41 0.61,-1 v -1.93 L 1078,638 l 0.2,-1 1.93,0.3 0.1,-2.63 1,-0.51 c 0,0 0.92,-1.83 1.42,-1.93 0.5,-0.1 0.71,-0.2 1.12,0.31 a 2.68,2.68 0 0 0 1.32,0.81 6,6 0 0 0 1.82,0.2 c 0.41,0 1.32,-0.1 1.32,-0.1 l 0.81,-0.51 2,0.41 1.22,-1.12 -0.61,-1.22 1.93,-0.5 0.2,-1 2.13,0.71 c 0,0 3.86,-0.3 4.36,-0.3 h 3.55 l -0.11,-0.44 0.07,-0.29 0.28,-0.12 h 1.52 l 1.07,-0.23 0.56,-0.52 0.18,-0.61 v -0.32 l -0.29,-1.08 0.07,-0.26 1,-0.38 0.9,-0.11 2,-0.53 0.2,-0.14 0.07,-0.29 v -0.26 l -0.11,-0.27 -0.29,-0.4 -0.82,-0.64 -0.52,-0.55 -0.6,-0.82 -0.47,-0.93 -0.18,-0.78 -0.26,-0.76 -0.38,-0.32 -0.31,-0.14 -1.25,-0.21 -2.81,-1 h -1.26 l -1.34,-0.09 -0.71,-0.24 -0.14,-0.11 v -0.2 l 0.17,-0.2 0.23,-0.15 0.55,-0.12 0.67,-0.38 0.69,-0.69 0.52,-1 0.6,-0.53 0.46,-0.2 0.16,-0.17 0.14,-0.23 -0.05,-0.38 v -0.61 l 0.36,-1.13 0.27,-0.12 0.89,-0.06 h 1.87 a 5.88,5.88 0 0 0 1.14,-1.16 c 0.2,-0.4 0.2,-1.72 -0.61,-1.21 -0.81,0.51 -1.11,0.4 -1.22,0 a 1.11,1.11 0 0 0 -1.11,-0.81 c -0.61,0 -2.13,0 -2.13,-0.82 0,-0.82 0.1,-1.11 0.61,-1.11 0.51,0 1.11,0 1.21,-0.51 a 1.37,1.37 0 0 1 0.61,-1 c 0.41,-0.31 0.81,-1 0,-1 -0.81,0 -1.52,-0.2 -1.62,-0.91 -0.1,-0.71 0.1,-0.81 -0.91,-0.81 -1.01,0 -1.93,0.4 -1.93,-0.61 0,-1.01 -0.41,-1.52 -1.22,-1 -0.81,0.52 -1.42,0.82 -1.42,0.82 l -3.34,-1.53 a 1.77,1.77 0 0 0 0.3,-1.52 21,21 0 0 0 -1.12,-2 l 1.32,-0.81 1,2.23 a 10.9,10.9 0 0 0 2.13,-1.92 6.93,6.93 0 0 1 0.61,-1 2.73,2.73 0 0 0 1,0 c 0.61,-0.1 0.61,-0.5 0,-1.11 a 12.23,12.23 0 0 1 -1.12,-1.32 l 0.31,-1.32 0.71,-1 1.32,1.63 0.91,-0.31 0.3,-1.21 0.21,-1.42 2.12,-0.07 -1.23,-1.23 -0.64,-0.78 -0.41,-0.35 h -0.2 l -0.55,0.55 -0.41,0.26 -0.56,0.12 -0.62,-0.15 -1.33,-0.85 -1,-0.21 -1,-0.08 -0.27,-0.12 -0.6,0.81 -0.86,1.74 -3.27,-0.25 -0.25,-3.1 -2.11,-0.49 -0.87,0.62 a 14.28,14.28 0 0 1 -1.4,-2.4 c -0.42,-1 -1.37,-1.24 -2,-0.5 a 2.11,2.11 0 0 1 -1.86,0.5 5.28,5.28 0 0 1 -0.62,1.28 c -0.37,0.5 -1.73,0.5 -2.65,0.25 -0.92,-0.25 -1.36,-1.53 -1.36,-1.53 l 0.49,-3 -1.23,-0.49 -1.74,-4.51 -1.12,-0.25 0.12,-1.61 a 1.24,1.24 0 0 0 -0.62,-0.75 2.55,2.55 0 0 0 -1,-0.25 l -0.62,0.75 -1.74,-0.12 0.56,-1.35 -1,-0.49 -0.87,-0.26 -0.2,-0.2 -0.22,-0.41 -0.27,-0.76 v -1 l -0.08,-0.56 -0.18,-0.17 -0.6,-0.17 -1.32,-0.09 -0.26,0.09 -0.43,0.26 -0.9,1.13 -1.13,-0.7 -0.16,2.42 1.37,0.87 a 8.46,8.46 0 0 1 -0.75,1.37 c -0.49,0.74 -0.37,0.74 -1.36,0.74 a 7,7 0 0 1 -2.77,-0.37 18.46,18.46 0 0 0 -3.85,-1.24 c -1.86,-0.37 -1.11,-0.62 -1.78,-1.91 a 2.14,2.14 0 0 0 -1.86,-1.24 l -0.86,1.24 -1.12,-0.74 0.87,-1.49 -0.37,-0.74 a 6.49,6.49 0 0 1 -2.48,-1 13.14,13.14 0 0 1 -1.41,-1.86 l -3.89,-2.32 -1.36,0.67 -0.38,0.38 -0.18,0.63 -0.09,0.67 v 0.93 0.29 l -0.18,0.26 h -0.35 l -0.51,-0.23 -0.78,-0.7 -0.31,-0.06 -2.45,0.58 -0.31,-0.05 -0.2,-0.47 -0.63,-0.08 -0.35,0.08 -0.32,0.38 -0.11,0.29 -0.17,0.2 -0.39,0.29 -0.26,0.09 h -0.65 l -3,-0.53 h -4.23 l -1.36,-0.58 -1.36,-0.12 -1,-0.2 -0.23,-0.09 -1.13,-0.78 -0.53,-0.5 -0.25,-0.46 -0.16,-0.44 -0.15,-0.66 v -0.24 l -0.44,-1.59 -0.3,-0.73 -0.19,-0.26 -0.39,-0.29 h -0.35 l -1.14,0.15 -0.24,0.52 v 1 l -0.09,0.73 -0.22,0.58 -0.16,0.2 -0.85,0.46 -0.19,0.18 -0.79,0.26 -0.31,-0.09 -0.44,-0.28 -0.81,-1.34 -0.4,-0.87 -0.19,-0.2 -0.61,-0.06 -1.85,0.52 -0.29,0.06 -0.33,-0.08 -1,-1.17 -0.63,-0.43 -1,-0.47 -0.37,-0.52 0.07,0.12 -0.61,-0.24 h -0.62 l -0.87,0.15 -0.6,0.2 -1.07,0.18 -0.63,-0.09 -1.07,-0.73 -0.18,-0.2 -1.11,-0.72 -0.51,-0.24 -0.64,-0.14 h -2 l -0.29,-0.12 -0.67,-0.06 -0.59,-0.2 -1.26,-0.64 -1,-0.2 -0.94,0.43 -1.45,1 -0.75,0.29 h -0.32 l -0.55,-0.58 -0.43,-0.32 -0.26,0.05 L 989,555 v 0.32 l 0.16,0.53 v 0.61 l -0.11,0.32 -0.13,0.14 -2.81,1.43 -1.27,0.52 -1.27,0.32 -0.78,0.32 -1.87,0.41 h -1.23 l -1.27,-0.2 -1,0.41 -0.2,0.14 -0.54,0.12 -1.34,-0.2 -0.91,-0.58 -1,-0.79 -0.62,-0.17 -0.52,0.12 -0.15,-0.21 V 558.27 557 l 0.18,-0.23 0.28,0.09 0.32,-0.06 0.16,-0.18 0.51,-1.39 0.15,-0.64 v -1 l -0.24,-0.81 -0.09,-0.55 -0.12,-0.24 -0.15,-0.52 -0.63,-0.46 -0.6,0.11 -1.6,0.85 -0.2,0.17 -0.47,0.15 -1,-0.18 h -0.67 l -0.27,0.12 -0.49,0.55 -0.21,0.22 -0.56,0.44 h -0.64 l -1.14,-0.41 -0.36,-0.08 h -0.26 l 0.06,0.61 -0.11,0.24 -1,0.46 -0.52,0.15 -0.56,-0.09 -1.33,-1.28 -0.85,-0.55 -1,0.44 -0.31,0.25 -0.85,0.18 -1.46,-0.46 h -0.32 l -0.24,0.17 -0.12,0.21 -0.13,0.26 -0.11,0.64 -0.4,0.72 -0.16,0.58 0.11,0.56 1.2,1.33 0.23,0.44 -0.27,0.52 -0.26,0.87 0.08,0.26 0.29,0.41 0.11,0.26 -0.64,1.22 v 0.32 l 0.46,0.58 -0.08,0.38 -0.32,0.72 -0.51,0.67 -0.2,0.15 -0.18,0.08 h -0.33 l -0.74,-0.12 -1.06,0.27 -0.18,0.2 -0.18,0.52 v 0.61 l 0.11,0.29 0.89,1.22 -0.11,0.67 -0.51,1.39 -0.07,0.35 0.16,0.2 0.94,0.18 0.13,0.26 -0.11,0.23 v 0.32 l 0.07,0.26 v 1 0.26 l -0.2,0.17 -1.22,-0.32 -0.31,0.09 0.06,0.23 0.16,0.18 0.43,1 -0.12,0.21 -0.27,0.14 -0.26,0.06 -0.2,-0.12 -0.39,-0.69 -0.55,0.08 -0.94,0.44 -0.31,-0.12 -0.36,-0.67 h -0.26 l -0.71,0.38 -0.25,0.06 -1,0.72 0.18,1.86 v 2 0.69 l -0.35,2.59 -0.34,-0.38 -1,-0.5 -0.87,0.06 -0.33,-0.4 -0.27,-0.55 -0.22,-0.15 h -0.35 l -0.32,0.75 -0.58,0.84 -0.36,0.81 2.17,1.8 0.11,0.24 -0.45,0.23 h -0.31 l -0.24,0.17 0.09,0.9 -0.07,0.32 -0.2,0.15 -1.12,0.61 -1.58,0.4 -0.2,0.18 0.05,0.61 0.35,0.73 0.29,1 -0.09,0.26 -0.2,0.17 -0.55,0.12 -0.2,0.21 v 0.28 l 0.13,0.27 0.15,0.23 0.2,0.11 0.56,0.18 1,-0.06 0.24,0.15 v 0.26 0.73 l -0.2,0.9 -0.74,1 -0.27,0.12 h -0.33 l -0.27,-0.09 -0.74,-0.73 -0.71,-0.37 -1.22,-0.29 h -0.32 l -0.22,0.14 -0.27,0.44 -0.09,0.29 -0.49,1 -0.33,0.43 v 0.32 l 0.91,0.58 0.16,0.18 0.31,0.43 0.73,1.34 v 0.35 l -0.27,0.14 -1.25,-0.58 h -0.38 l -0.17,0.2 -0.31,0.78 -0.45,0.73 -0.35,0.32 -0.94,0.43 -0.55,0.15 v 1.08 l 0.2,0.52 0.23,0.41 0.17,0.17 0.27,0.12 1.14,0.37 0.24,0.15 v 0.32 l -0.25,1.19 -0.56,0.18 h -0.89 l -0.22,0.12 -0.15,0.26 v 0.35 l 0.15,0.47 0.3,0.46 0.17,0.46 v 0.32 0.32 l -0.46,1.43 0.53,1.51 -0.09,0.26 -1,0.4 -0.55,0.15 h -0.62 l -1.56,-0.26 -3,0.72 -1,0.35 -0.78,1.83 -0.89,1.37 -0.19,0.52 v 0.32 l -0.09,0.26 -1.07,1.1 -0.38,0.73 -0.29,0.81 -0.07,0.29 v 0.41 l 0.09,0.58 0.07,0.26 0.13,0.18 0.2,0.49 v 0.32 l -0.09,0.32 -0.13,0.2 -0.42,0.29 -0.16,0.2 -0.22,0.53 0.07,0.61 0.29,0.75 0.17,0.53 -1.32,1.53 -0.37,-0.17 -0.38,-0.06 -0.44,-0.25 v -0.64 l -0.09,-0.26 -0.14,-0.21 -0.47,-0.26 -0.31,-0.05 -0.26,0.05 -0.78,0.61 -0.51,0.26 -0.54,0.09 -0.94,-0.15 -1,-0.52 h -0.34 l -0.22,0.12 -0.15,0.32 -0.12,0.55 0.09,0.64 -0.09,0.64 -0.55,0.52 -1.09,0.64 -0.81,0.77 m 293,105.55 v -0.21 -0.95 l -0.35,-1.63 0.09,-0.29 0.37,-0.35 0.47,-0.61 0.09,-0.32 -0.09,-0.55 -0.71,-1.37 v -0.26 l 0.08,-0.38 0.12,-0.23 1,-0.78 0.15,-0.26 v -0.29 l -0.76,-1.22 -0.81,-1.68 -0.37,-0.93 -0.78,-1 -0.11,-0.26 v -0.32 l 0.25,-0.55 0.08,-0.64 -0.44,-0.64 -1.69,-0.61 -0.89,-0.58 -0.2,-0.5 v -0.26 l 0.06,-0.51 1,-1.72 0.41,-1.42 0.91,-0.21 0.41,-0.91 -1.62,-1.72 0.71,-3.45 -1.83,-1 0.61,-1.82 -1.32,-3.15 -0.61,-0.2 -1.22,0.3 -1.82,-1.52 -1,-3.24 2.54,-1.42 a 7.83,7.83 0 0 0 1.52,0.4 3.29,3.29 0 0 0 2.23,-1.11 1.49,1.49 0 0 0 0.1,-1.63 l -3,-1.63 -1.71,-0.5 -0.31,1.32 -2.94,-2.43 0.51,-2.64 2.13,0.1 1.52,-1.11 -0.4,-3.35 -6.7,-0.51 -0.4,-1.32 -1,-0.1 a 10,10 0 0 0 -0.2,-3.75 2.81,2.81 0 0 1 0.61,-2.54 l 1.32,-0.2 0.6,-2.44 -2.73,-1.11 -0.11,-1 2,-1.21 0.31,-1.32 -0.81,0.2 -0.41,-1.42 2.23,-0.81 -0.1,-2.23 -3.14,-0.51 v -0.71 h 1.72 l 0.1,-0.91 -1.42,-1.22 a 9.28,9.28 0 0 0 1.22,-1.62 c 0.61,-1 0,-2.74 -0.1,-3.86 -0.1,-1.12 -1.93,-2.63 -1.93,-2.63 l 0.3,-0.51 2,-0.31 -1.72,-1.62 2.53,-3 v -1.52 l 2.38,-0.57 -0.33,-0.69 -0.09,-1.45 0.11,-0.73 0.42,-1.1 -0.06,-0.29 -0.38,-0.61 -0.32,-0.38 -0.63,-0.55 m 151.86,11.84 -0.09,-0.29 -0.45,-0.63 -0.58,-0.5 -1,-0.49 -0.16,-0.2 -0.07,-0.29 0.09,-0.67 0.34,-0.87 v -0.29 l -0.13,-0.26 -1.25,-0.61 -0.62,-0.14 -0.25,0.08 -0.19,0.2 -0.23,0.09 -0.58,0.47 h -0.29 l -0.22,-0.17 -0.31,-0.7 -0.22,-0.17 -2.23,-0.47 -0.42,-0.37 -0.11,-0.21 0.06,-0.35 0.3,-0.9 0.28,-0.49 0.81,-1.91 v -0.35 l -0.12,-0.23 -0.62,-0.18 -0.19,-0.14 -0.32,-0.41 -0.24,-0.44 -0.51,-0.58 -1.26,-0.08 -0.28,-0.09 v -0.29 l 0.14,-0.67 v -0.32 l 0.51,-1.54 v -0.31 l -0.29,-0.41 -0.92,-0.23 -0.68,-0.44 -0.63,0.44 -1,0.87 -0.8,0.14 -0.43,0.26 -0.39,0.32 -0.83,1 -1,0.23 -0.25,0.15 -0.31,0.32 -0.22,0.67 -0.34,0.32 h -0.29 l -0.87,-0.32 -1.56,-1 -0.2,-0.23 -0.86,-0.64 -0.65,-0.41 -0.6,-0.23 -0.65,-0.08 -0.47,0.2 -0.57,0.52 -2.08,2.76 -0.87,0.87 -1,1.22 -0.4,0.35 -0.27,0.41 -1.36,1.57 -0.58,0.49 -0.89,1 -0.28,0.37 -1,0.79 -0.73,0.29 h -0.67 l -0.76,-0.38 -1,-0.17 -1,0.32 -1.27,-0.09 -2.21,-0.58 -1.4,-0.55 -0.78,0.2 -0.64,0.38 -0.83,0.12 -0.66,-0.18 -2.18,-0.93 -1.65,-0.2 -0.87,0.06 -1.07,0.26 -2,1 -0.76,0.15 -1,-0.26 -1,-0.49 -0.59,-0.21 -1,-0.14 -0.29,-0.12 h -0.75 l -0.26,-0.15 -0.66,-0.15 -0.22,-0.12 -0.36,-0.38 -0.09,-0.58 0.22,-0.61 1.07,-1 0.43,-0.23 0.28,-0.12 h 1.45 l 0.51,-0.2 1,-1.17 0.09,-0.26 v -0.32 l -0.14,-0.26 -0.58,-0.17 -0.71,0.29 h -0.6 l -2,-0.29 -1,0.29 h -0.27 l -1.33,-0.17 -1.65,-0.35 -1.06,0.29 -0.39,0.23 -1,0.81 -0.45,0.24 -1,-0.29 -0.89,-0.56 -1.09,-0.78 -0.73,-0.7 -0.36,-0.4 -0.08,-0.21 v -0.29 l 0.18,-0.63 v -0.26 l -0.12,-0.29 -0.11,-0.21 -0.27,-0.08 -0.29,0.06 -0.71,-0.53 -1.65,-0.93 -0.33,-0.35 v -0.32 l 0.13,-1 0.09,-0.32 0.25,-0.49 0.44,-0.26 1.94,-0.29 0.23,-0.08 0.17,-0.18 0.07,-0.35 v -0.35 l -0.07,-0.23 v -0.61 l 0.19,-0.64 0.12,-0.17 1.33,0.23 h 1.25 l 0.8,-0.55 0.27,0.12 0.27,0.75 0.35,0.67 0.39,0.35 h 0.33 l 0.44,-0.23 0.43,-0.7 0.15,-0.67 0.23,-0.49 0.33,-0.46 0.69,-0.32 h 0.32 l 0.44,-0.26 0.49,-0.58 v -0.32 l -0.23,-0.14 h -0.28 l -0.81,0.14 -0.49,0.18 -0.44,0.29 -0.69,0.66 -0.31,0.06 -0.34,-0.06 -0.8,-0.32 -0.06,-0.32 0.31,-0.49 1,-0.81 0.82,-0.53 0.18,-0.2 v -0.29 l -0.24,-0.44 -0.22,-0.17 -1,0.38 -0.23,-0.15 -0.24,-0.46 -0.2,-1.08 -0.2,-0.52 -0.45,-0.29 -0.59,-0.17 -0.21,-0.15 -0.15,-0.2 0.38,-0.38 0.67,-0.38 0.38,-0.75 v -0.32 l -0.11,-1.51 v -0.61 l -0.18,-0.85 -2.83,-0.49 -3.86,1 -1.42,-2.23 -2.33,-0.1 -0.71,-0.92 -5.68,-0.5 -0.41,-2.24 -2.43,-2.33 a 20,20 0 0 1 -3.35,-0.1 1.86,1.86 0 0 1 -0.81,-0.71 l 1.62,-1.83 0.51,-3.75 1.62,-3.45 -2.84,-1.52 -0.1,-2.84 c 0,0 -4.06,-1.42 -4.77,-1.62 a 3.23,3.23 0 0 0 -2.84,0.61 13.43,13.43 0 0 1 -2.94,2.63 5.87,5.87 0 0 1 -2.33,-0.4 l -0.91,1.62 a 6.44,6.44 0 0 0 -2.24,-0.81 14.09,14.09 0 0 1 -2.23,-0.31 l -0.3,-1.62 -0.81,-0.1 m 82.32,-157.21 -3.71,6.27 -1.62,-0.41 -1.32,2 0.1,2.74 c 0,0 0.51,0.3 1.22,0.81 a 4.82,4.82 0 0 1 1.22,1.62 17.06,17.06 0 0 0 -2.74,-0.71 c -0.61,0 -3.35,0.51 -3.35,0.51 l -0.1,1.32 c 0,0 -0.91,0.61 -1.32,0.81 a 5.45,5.45 0 0 0 -1.11,1.22 l 1.82,2.23 -0.61,1.52 -1.21,-1.22 -0.82,0.92 -1.31,-0.81 -0.92,2.33 0.81,1.42 a 1.51,1.51 0 0 1 0,1.42 10.19,10.19 0 0 1 -2.53,-0.31 3.34,3.34 0 0 1 -1.52,-1.31 h -2.34 l -1.21,1.31 -1.22,-1.42 v -1.31 l -2.33,-0.21 -1.73,-1.21 v -1.53 l -3,2.24 0.87,1 0.09,0.23 0.14,2.09 -0.11,1 v 0.9 l -0.2,0.61 -0.12,0.17 -0.29,0.12 -0.8,0.12 -0.27,0.14 -0.4,0.29 -0.64,0.87 -0.27,0.9 v 0 l -1.35,0.2 a 2.55,2.55 0 0 1 -0.61,-0.71 1.62,1.62 0 0 1 0,-1 l -1.72,-0.81 -0.91,0.71 c 0,0 -1,-0.81 -1.42,-1.21 a 14.52,14.52 0 0 1 -1.22,-1.73 h -1.83 c 0,0 -0.3,0.2 -0.71,0.51 a 3.46,3.46 0 0 0 -0.91,1.22 c -0.2,0.4 -0.71,2.13 -0.71,2.13 h -1 l -0.71,1 -3.35,-0.1 -0.31,1.22 -2.63,1.32 -0.81,-1 c 0,0 0.2,-0.61 0.4,-1.42 0.2,-0.81 -0.81,-1.83 -0.81,-1.83 h -1.32 l -0.2,1.73 -2.13,1.82 -7,-2.13 c 0,0 -0.31,0.82 -0.51,1.53 -0.2,0.71 -1.52,0.91 -2.23,0.81 -0.71,-0.1 -3.45,-0.71 -3.45,-0.71 l -0.61,-1.32 -1.11,0.1 a 1.3,1.3 0 0 1 -0.61,1 1.56,1.56 0 0 1 -1.42,0 l -1.73,2.14 h -2 l -0.91,1.21 -2.33,0.31 a 10.08,10.08 0 0 0 -0.61,1.52 4.5,4.5 0 0 1 -0.81,1.42 l 1.62,1.82 -0.51,2.13 a 5.41,5.41 0 0 1 1.12,0.41 c 0.61,0.3 0.81,2 0.81,2 l -0.91,0.3 -0.31,2.74 c 0,0 -1,0.2 -2.33,0.51 -1.33,0.31 -0.2,2.54 -0.2,2.54 l 1.22,0.1 0.1,-1 c 0,0 2.53,-0.2 3.34,-0.2 0.81,0 1.22,1.83 1.22,2.23 a 17,17 0 0 0 1.12,2.64 l -1.22,-0.1 -1.22,1.52 a 1.8,1.8 0 0 0 -1.42,-0.51 c -1,0 -0.71,1.32 -0.71,1.32 a 14.73,14.73 0 0 0 -2.84,0.81 c -0.71,0.41 -0.81,1.83 -0.81,1.83 l 1.42,1 c 0,0 1.22,0.81 1.32,1.32 a 6.72,6.72 0 0 0 0.8,2 c 0.51,0.91 0.82,0.92 0.11,1.43 a 6.67,6.67 0 0 0 -1.42,1.93 l -0.91,-0.81 -0.91,1.42 0.5,1.11 -1.31,0.61 -2.57,-1.1 -0.7,0.23 -1.37,0.26 -0.47,0.23 -0.38,0.33 v 0.63 l 0.07,0.29 v 0.64 l -0.19,0.55 -0.42,0.32 -0.56,0.12 -0.78,-0.4 -0.29,-0.44 -0.11,-0.46 v -0.38 l 0.2,-1.4 -0.35,-0.4 -0.65,-0.47 -0.31,-0.37 -0.26,-0.47 -0.18,-0.17 h -0.29 l -0.47,0.23 -0.18,0.2 -0.24,0.53 -0.07,0.63 v 0.9 l -0.11,0.73 -0.41,1.16 -0.48,0.64 -0.76,0.7 -0.2,0.14 -0.28,0.07 0.56,0.4 0.18,0.28 0.52,1.37 0.69,1.22 0.93,1 0.27,0.2 1.2,0.29 1.29,0.17 h 0.49 l 0.39,-0.08 0.38,0.11 0.59,0.85 0.42,0.06 0.4,-0.09 1.13,-0.79 0.65,-0.29 h 0.86 l 0.38,0.08 0.56,0.41 0.69,0.76 0.14,0.34 0.11,0.82 v 1 l -0.08,0.43 v 0.41 l 0.13,0.35 0.94,0.52 0.18,0.29 0.13,0.35 -0.13,0.84 -0.11,0.38 -0.27,0.73 -0.47,1 v 0.38 l 0.62,0.35 1.14,0.35 0.7,0.07 -0.32,0.42 -0.65,1.28 -0.2,0.58 v 0.64 l 0.09,0.58 -0.11,0.23 -0.36,0.38 -0.4,0.26 -0.56,0.58 h -0.33 l -0.27,-0.15 -0.69,-0.06 -0.25,0.09 -0.8,0.61 -0.47,0.23 -0.51,0.12 -0.63,0.61 -0.15,0.26 v 0.29 l 0.14,0.23 0.24,0.12 h 0.65 l 0.86,-0.11 0.29,0.46 v 0.93 l 0.17,0.81 0.29,0.41 0.2,0.15 h 0.61 l 0.24,0.14 0.25,0.41 0.37,0.12 0.36,-0.32 0.31,-0.06 0.12,0.17 0.08,0.61 -0.15,1.34 -0.31,0.93 -0.29,0.46 -0.09,0.32 -0.13,1 -0.3,1.28 -0.48,0.63 -0.45,0.29 h -0.25 l -0.51,0.64 -0.38,0.29 -0.71,0.38 -0.11,0.26 0.22,0.14 h 0.32 0.57 l 0.76,-0.24 0.34,0.06 v 0.64 l 0.89,-0.12 1.47,1.4 -0.33,0.16 -1.52,0.36 -0.58,0.35 -0.45,0.49 -0.31,0.67 -0.29,1.19 v 0.46 l -0.76,3.66 -0.18,1.43 0.47,0.49 0.15,0.43 0.76,1.34 0.49,0.64 0.09,0.55 v 0.32 l -0.29,0.87 -0.63,1.68 -0.16,0.24 -0.35,0.81 v 0.38 l -0.59,0.45 0.1,1.34 0.09,0.38 0.25,2.07 0.59,0.84 -0.1,0.64 0.22,-0.29 0.17,0.75 0.61,1.28 v 0.44 l -0.11,0.37 -0.4,0.55 -0.45,0.53 -0.29,0.17 -0.46,0.5 v 0.35 l 0.76,0.2 0.33,0.17 0.21,0.23 0.13,0.41 -0.05,1.42 -0.11,0.38 -0.12,0.88 0.34,-0.12 c 0,0 0,2.12 0,2.73 0,0.61 0.4,1.32 0.4,1.73 a 10,10 0 0 0 0.81,2.43 c 0.31,0.61 0.61,0.81 0.1,2.74 -0.51,1.93 0.61,2.33 1.12,3.35 0.51,1.02 0.1,3.24 0.1,3.85 a 10.71,10.71 0 0 0 0.61,2.23 13.52,13.52 0 0 1 0.3,1.32 c 0,0 -0.4,1.32 -0.6,1.83 a 15.93,15.93 0 0 1 -0.61,1.93 c -0.31,0.5 -0.1,1.32 -0.1,2.13 a 3.83,3.83 0 0 1 -0.51,1.82 15,15 0 0 0 -0.61,2 c 0,0 0.3,1.83 -0.61,2 a 1.79,1.79 0 0 0 -1.52,1.22 c -0.1,0.5 -0.1,2.53 -0.71,2.74 -0.61,0.21 -1.42,0.4 -1.52,0 -0.1,-0.4 -1,-0.61 -1.42,0 a 27,27 0 0 1 -2.33,2.33 c -0.51,0.51 -2.64,2.13 -2.64,2.13 0,0 0,2.54 -0.51,3 a 15.58,15.58 0 0 0 -1.83,2.64 c -0.3,0.61 -1.31,2.43 -1.31,2.43 a 1.26,1.26 0 0 1 -1.12,0.71 c -0.81,0 -2.23,-0.3 -2.94,0 -0.71,0.3 -2.33,1.63 -2.94,1.83 a 15,15 0 0 1 -2.34,0.41 c -0.81,0.1 -1.42,0.5 -1.42,1.21 a 12.84,12.84 0 0 0 0.21,1.83 c 0,0 -0.51,1.12 -1.12,1.32 a 9,9 0 0 1 -1.42,0.3 l -1.24,0.32 -0.83,0.27 h -0.42 l -0.79,-0.17 h -0.42 l -1.4,0.85 -1.54,1.77 -1,0.46 -0.68,0.18 -0.28,0.27 -0.1,0.36 -0.12,1.24 -0.21,0.28 -0.41,0.05 -0.6,-0.38 -0.38,-0.08 -0.15,0.32 v 1 l -0.15,0.32 -0.52,0.43 -0.77,0.15 -0.61,0.32 -0.18,0.76 -0.1,0.43 -0.19,0.29 -0.28,0.17 -1.18,0.21 -0.25,0.23 -0.15,0.32 -0.27,1.68 -0.25,0.23 -0.33,0.12 -0.36,-0.09 -0.29,-0.2 -0.46,-0.49 -0.43,-1 -0.07,-0.42 v 0 l -0.19,-0.28 -0.42,-0.06 -0.58,0.26 -0.48,0.47 -0.16,0.35 -0.27,0.17 -1.74,0.09 -0.56,0.38 -1.07,1.3 -0.91,0.49 -1.22,0.15 -0.79,-0.06 -1.42,0.44 -0.85,0.08 -1.67,-0.26 -0.62,0.33 -0.14,0.34 -0.08,0.44 -0.18,0.26 -0.53,0.44 h -0.79 l -0.75,-0.21 -0.38,0.09 -0.52,0.4 -0.66,0.3 -0.38,0.08 h -1.3 l -0.33,0.12 -0.25,0.23 -0.15,0.82 -0.16,0.31 -0.51,0.44 -0.38,0.09 -0.33,-0.15 -0.27,-0.2 -0.69,-0.76 -0.27,-0.17 -0.42,-0.56 -0.31,-0.14 -0.44,-0.06 h -0.89 l -0.23,0.23 -0.15,0.32 -0.07,1.31 -0.2,0.26 -0.47,0.46 -1.29,0.61 -0.47,0.47 -0.15,0.32 v 0.42 1.18 l -0.26,0.26 -0.35,0.14 h -0.45 l -0.38,0.09 -0.2,0.29 -0.24,0.72 -0.61,0.32 -0.71,0.2 -0.24,0.24 -0.2,0.29 -0.11,0.37 a 4.35,4.35 0 0 1 -2.18,-0.06 4.08,4.08 0 0 0 -2,0 c -0.61,0 -0.92,0.31 -1.73,1.22 -0.81,0.91 -1.93,0.4 -1.82,-0.41 0.11,-0.81 -0.92,-0.2 -1.63,0.21 a 2.67,2.67 0 0 1 -1.91,-0.11 h -0.36 l -0.72,0.29 -1.42,0.23 -1.76,0.06 -0.62,-0.18 -0.41,-0.32 -0.33,-0.4 -0.29,-0.7 -0.18,-0.78 -0.18,-0.21 -0.77,-0.4 -0.38,-0.32 -0.4,-0.59 v -0.34 l 0.09,-0.38 0.13,-0.15 0.46,-0.2 0.87,-0.15 0.34,-0.35 -0.09,-0.23 -0.25,-0.15 h -0.35 l -0.8,0.17 -0.7,-0.75 -2.44,-2.19 1.32,-1 -0.41,-1.83 h -0.91 l -0.41,-2.13 -0.91,-0.1 -1.22,0.71 -0.61,-0.3 1.12,-2.13 -0.81,-1.32 h 2.94 l 0.51,-1.12 -0.81,-0.4 -0.21,-1.53 a 1.44,1.44 0 0 1 -1.11,-1 3,3 0 0 0 -0.82,-1.32 c 0,0 0,-1 -0.81,-1.11 -0.81,-0.11 -0.91,-1.12 -0.91,-1.12 a 13.42,13.42 0 0 1 0.61,-2.74 c 0.3,-0.51 0.1,-1 -0.61,-0.81 -0.71,0.19 -0.51,-0.1 -0.71,-0.71 -0.2,-0.61 -0.91,-0.51 -1.32,-0.41 -0.41,0.1 -0.71,-0.81 -1,-1.32 -0.29,-0.51 -2,-0.3 -2.54,-0.1 a 6,6 0 0 0 -1.32,1 l -4.16,-0.71 0.61,-1 a 3.25,3.25 0 0 0 -1.52,-1 5.34,5.34 0 0 0 -1.62,-0.51 l -0.92,0.91 h -0.6 l -0.51,-1 -3.35,-0.61 -1.82,1.12 m 210.48,-186.19 -2,0.41 -0.43,-0.09 -0.27,-0.2 -0.37,-0.61 -0.23,-0.24 -0.71,-0.29 -0.44,-0.06 -0.76,0.18 -0.76,0.7 -0.62,0.34 -1.27,0.12 h -0.49 l -0.72,-0.29 -0.17,-0.29 0.11,-0.37 0.6,-0.88 0.07,-0.43 -0.22,-0.73 -0.52,-0.9 -0.69,-0.75 -1.29,-0.67 h -0.49 l -0.51,0.44 h -0.45 l -0.22,-0.27 -0.09,-0.37 v -1 l -0.67,-0.23 -0.27,-0.21 -0.36,-0.58 -0.13,-0.55 -0.36,-0.49 -0.28,-0.21 -1.15,-0.28 0.16,-0.21 -0.46,-0.06 -0.83,0.09 -1,0.43 -1.54,0.35 -0.56,0.41 -0.35,0.12 h -0.46 l -2,-0.49 -2.19,-0.78 -0.46,-0.06 -0.69,0.14 h -0.44 l -0.23,-0.26 -0.13,-0.35 -0.45,-0.5 -0.44,-0.05 -1.38,0.11 h -0.83 l -1,-0.52 -0.44,-0.06 -0.4,0.06 -0.65,0.32 -0.4,0.06 -0.93,-0.09 -0.67,-0.32 -0.69,0.26 -0.89,-0.14 -0.29,0.17 h -0.45 l -0.19,-0.29 -0.25,-0.7 -0.33,-0.14 -0.65,0.29 -0.4,0.08 -0.29,-0.2 -0.12,-0.4 -0.19,-0.29 -0.94,-0.53 -0.16,-0.67 -0.28,-0.69 -0.5,-0.44 -0.31,-0.64 v -1.36 l 0.24,-0.76 0.15,-0.84 -0.11,-0.81 -0.13,-0.35 -0.4,-0.12 h -0.78 l -0.42,-0.55 -0.2,-0.72 -0.27,-0.7 v -0.84 l 0.12,-0.38 0.06,-0.44 0.29,-0.69 0.14,-0.87 v -0.38 l -0.09,-0.37 -0.22,-0.27 -0.58,-0.41 -0.74,-0.69 -0.6,-0.84 -0.51,-1 -0.56,-0.41 -0.35,-0.14 -0.5,-0.47 -0.37,-0.58 -0.22,-0.73 -0.18,-0.29 -0.07,-0.4 -0.18,-0.29 -1.24,-0.73 0.28,-1.52 1.11,-0.4 0.21,-1.73 2.13,-1.52 -2.13,-0.1 c 0,0 -0.61,-1.22 -0.31,-1.93 a 2.78,2.78 0 0 0 0,-2.23 c -0.3,-0.91 -1,-1.52 -0.4,-2.43 0.6,-0.91 0.91,-1.32 0.5,-2.44 -0.41,-1.12 -0.4,-1.72 0,-2.33 a 3.74,3.74 0 0 0 0.51,-2 17.41,17.41 0 0 0 -0.4,-2.33 l -4.67,-0.31 0.1,1.52 -2.74,0.51 0.21,2.23 h -2.74 l 0.2,-2.43 -1.52,-0.1 -1.93,-6 h 3.35 l 0.3,-2.33 -1.62,0.2 0.71,-1.92 -1,-1.73 -1.21,0.91 h -2.94 l -0.41,2.74 -1.42,-0.2 -2.94,1.32 -1.42,-1.93 -0.71,2.13 -1.12,-0.91 -1.72,0.1 -0.41,-1.07 -0.45,-2.21 -0.06,-1.22 -0.34,-0.08 -0.58,0.06 -0.28,-0.18 -0.12,-0.81 -0.15,-0.47 -0.71,-1.13 -0.07,-0.23 v -0.32 l 0.31,-0.46 0.22,-0.15 0.42,-0.67 0.09,-0.32 v -0.64 l -0.56,-1.8 -0.29,-0.69 -0.2,-0.18 -1,-0.26 -1.83,-0.93 -1,-0.84 -1.41,-0.84 -1.17,-1.14 -0.28,-0.72 -0.06,-0.55 0.06,-0.38 0.2,-0.64 0.14,-0.2 h 0.35 l 0.16,0.49 0.16,0.2 h 0.36 l 1.56,-1 v -0.26 l -0.11,-0.23 -0.47,-0.61 -0.2,-0.84 v -0.32 l 0.37,-0.79 0.32,-0.49 0.06,-0.35 -0.15,-0.23 -0.24,-0.14 -0.38,-0.06 -0.54,0.11 -0.26,0.12 -0.74,0.67 -0.67,0.84 -0.24,0.18 -0.3,0.08 -0.73,-0.38 -0.24,-0.2 -0.36,-0.7 -0.89,-0.32 -0.73,-0.43 -0.22,-0.44 -0.18,-0.55 -0.18,-1.1 -0.18,-0.47 -0.36,-0.4 -0.57,-0.26 -0.36,-0.06 h -0.63 l -1.82,0.2 h -0.65 l -0.66,-0.14 -1.57,-1.11 -1.06,-1.45 -0.22,-0.46 -0.18,-0.53 v -0.29 l 0.07,-0.69 0.09,-0.32 v -0.56 l -0.19,-0.52 -0.65,-1 -0.47,-1 -0.09,-0.55 0.07,-0.93 v -0.64 l -0.31,-1.34 -0.79,-1.36 -0.46,-0.58 -0.4,-1 -0.27,-0.43 -0.36,-0.35 -0.08,-0.27 -0.1,-0.87 0.14,-0.2 0.26,-0.12 h 0.94 l 0.13,-0.32 v -0.32 l -0.2,-1.07 -0.29,-0.7 -0.45,-2.21 2.23,0.21 0.1,1 2.23,-0.51 -2.74,-2.84 -0.61,0.71 -1.18,-0.6 0.32,-0.06 0.14,-0.21 0.09,-0.32 -0.11,-0.55 -0.45,-0.9 v -0.38 l 0.58,-0.49 0.23,-0.08 0.19,-0.21 0.14,-0.2 0.11,-0.35 v -0.23 l -0.76,-1.4 0.13,-0.66 0.15,-0.24 -0.26,-0.49 -0.83,-1 -1,-0.11 -0.29,-0.12 -0.16,-0.2 v -0.58 l 0.07,-0.29 0.42,-0.38 0.15,-0.23 -0.89,-0.32 -0.46,-0.32 -0.3,-0.41 -0.19,-0.46 -0.16,-0.87 v -1.22 l -0.18,-0.5 v -0.35 l 0.23,0.12 0.33,-0.06 0.09,-0.32 -0.15,-0.49 -0.14,-0.23 -0.37,-0.38 -0.37,-0.2 m -77,223.83 5.71,0.78 0.3,1.52 -1.62,0.91 1.52,2.94 0.81,-0.71 1.22,0.61 -1.18,2.6 0.31,0.12 0.29,0.41 0.08,0.23 0.27,0.46 0.16,0.79 0.15,0.26 0.2,0.11 1.43,-0.17 0.24,-0.15 0.49,-1 0.3,-0.41 0.6,-0.08 1.22,0.32 0.69,0.46 0.31,0.41 0.36,0.67 0.18,0.49 0.64,0.84 0.38,0.29 1.05,0.52 1.36,0.84 0.38,0.41 0.42,0.61 0.09,0.55 v 0.29 l -0.09,0.35 -0.87,1 -0.22,0.55 0.06,0.55 0.23,0.15 0.53,-0.15 1.52,-1.3 0.27,-0.09 0.44,0.26 1.6,1.34 -0.13,0.67 0.09,0.58 0.56,0.52 0.24,0.15 0.23,-0.09 0.35,-0.4 0.6,-0.41 0.87,0.26 1.25,-0.84 -0.71,-0.61 0.41,-1.22 1,0.71 2.13,-1.11 1.42,2.33 2.94,-3.35 2.44,1.83 1.14,1.24 h 0.32 l 0.24,0.18 0.2,0.55 0.36,0.26 h 0.36 l 0.75,-0.69 0.42,-0.3 h 0.29 l 0.14,0.21 0.44,0.29 0.25,-0.12 1.36,-1.57 0.58,-0.93 0.13,-0.29 v -0.66 -0.32 l -0.23,-1.08 0.09,-0.32 h 0.32 l 0.49,0.35 0.75,0.35 0.38,0.35 0.16,0.49 0.13,0.2 0.71,0.73 0.07,0.26 v 0.32 l -0.29,0.49 -0.34,0.38 -0.6,0.41 -0.38,0.38 -0.08,0.26 0.09,0.26 0.57,0.55 1.37,0.9 0.35,0.35 0.11,0.55 v 0.32 0.32 l 0.24,0.09 1,0.08 0.33,0.09 0.14,0.18 -0.08,0.37 -0.4,0.76 -0.17,0.55 -0.09,1 -0.12,0.67 -0.29,0.9 v 0.32 l 0.31,0.4 13.77,-0.12 0.13,1.2 h 0.62 l 0.22,0.47 0.14,0.17 0.86,-0.11 0.07,0.23 v 0.32 l -0.06,0.32 v 0.32 1 l 0.16,0.2 0.58,0.15 0.83,0.4 1.87,0.29 0.42,0.32 0.35,0.38 0.09,0.23 0.2,0.18 0.11,0.23 0.38,0.35 h 0.32 l 1.8,-0.52 v -0.27 l -0.56,-0.55 -0.23,-0.44 v -0.32 l 0.27,-0.15 0.31,0.06 1,0.55 0.59,-0.06 -0.06,-0.26 -0.72,-0.72 -0.4,-0.67 v -0.29 l 0.18,-0.26 0.38,-0.32 0.44,-0.23 0.55,-0.09 h 0.94 l 0.22,0.15 0.32,0.46 0.17,0.12 0.49,-0.12 1.2,-0.55 0.27,-0.06 h 0.29 l 0.22,0.18 h 0.3 l 0.82,-0.61 0.55,-0.09 0.45,0.29 h 0.33 l 0.5,-0.36 0.09,-0.43 0.19,-0.2 h 0.31 l 0.85,0.35 1.14,-0.15 0.64,0.12 0.54,0.23 0.54,0.55 0.33,0.73 0.19,0.74 0.17,0.54 1.37,-0.29 h 0.58 l 0.49,0.29 0.56,0.49 0.23,0.12 h 0.33 l 1.56,-0.65 0.06,-0.38 -0.09,-0.55 0.12,-0.29 0.71,-0.38 0.13,-0.15 0.2,-0.55 m -133.83,20.41 v -0.29 l 0.06,-0.35 0.34,-0.43 1.07,-0.26 0.4,-0.32 0.46,-0.67 0.2,-0.52 0.47,-0.59 0.41,-1.16 0.13,-0.2 0.24,-0.12 h 0.63 l 0.51,-0.17 0.89,-0.53 0.33,-0.32 0.12,-1.2 -0.31,-2.33 a 7.75,7.75 0 0 1 -0.3,-1.83 c 0,-0.81 0,-1.62 0.61,-2 a 3.61,3.61 0 0 0 1,-2.44 c 0.11,-0.91 0.31,-3.35 0.31,-3.35 l 1.72,2.23 3,0.61 0.91,0.81 a 5,5 0 0 1 0.81,2 c 0,0.82 2.23,2.54 2.64,2.95 0.41,0.41 1.92,-0.31 1.92,-0.31 a 5.21,5.21 0 0 0 -0.2,-2 c -0.3,-0.5 0,-1.42 0.2,-1.93 0.2,-0.51 1,-1.87 1,-1.87 l -0.11,-3.95 -3.87,-0.67 c 0,0 0.1,-2.33 0.2,-3.14 a 8.34,8.34 0 0 0 -0.71,-2.74 l 1.53,-2.43 h 1.62 l 0.1,-1.63 -1.72,-1.52 2.84,-2.23 1.92,1.22 h 0.71 l 0.82,-0.41 1.81,0.66 0.69,0.06 0.25,-0.06 1.2,-0.55 0.62,-0.47 0.43,-0.58 0.11,-0.32 0.38,-0.35 0.24,-0.11 0.23,0.14 0.11,0.2 0.26,0.79 h 0.25 l 0.15,-0.2 0.31,-0.9 0.29,-0.38 h 0.32 l 0.66,0.49 0.32,0.06 0.49,-0.23 0.58,-0.93 -0.07,-0.29 -0.14,-0.2 -0.08,-0.26 v -0.33 l 0.55,-1 0.07,-0.26 v -0.38 l -0.2,-0.38 0.09,-0.32 0.22,-0.12 1.18,0.7 2.26,0.06 0.48,-0.26 0.76,-1.08 0.23,-0.11 0.6,0.08 1.16,0.7 0.33,0.08 0.76,-0.26 0.88,-0.58 V 544 l 0.11,-0.5 0.06,-1.94 -0.47,-1.22 -0.15,-0.2 -0.18,-0.53 -0.13,-0.2 -0.24,-1.08 0.2,-0.63 0.15,-0.21 0.4,-0.28 h 0.58 l 0.82,-0.18 0.41,-0.35 0.31,-0.4 0.26,-0.53 0.18,-0.17 0.11,-0.29 0.27,-0.44 0.18,-0.2 0.13,-0.61 v -1 l 0.13,-1.34 0.07,-0.32 0.49,-1.1 v -0.33 a 11.74,11.74 0 0 0 2,-1.36 4,4 0 0 0 0.61,-2.24 l 0.41,-2.33 1.52,-1.12 1.32,0.11 -0.71,-3.25 -0.1,-2.23 -2,0.81 -1.58,-0.26 v -1.27 -0.64 l 0.31,-1.28 0.27,-1.71 v -1 l -0.07,-0.9 -0.16,-0.17 -1.61,-0.7 -0.73,-0.73 -0.11,-0.23 v -0.29 -0.66 l 0.16,-0.61 0.44,-0.76 0.22,-0.17 0.07,-0.29 -1.47,-2.38 -0.2,-0.21 -0.45,-0.14 -0.08,-0.9 -0.29,-1.08 0.06,-0.35 0.18,-0.23 0.22,-0.06 0.45,-0.32 0.75,-1.07 0.54,-0.55 0.82,-0.56 0.58,-0.17 0.89,-0.06 0.38,0.06 2.33,1.1 1.1,0.41 0.64,0.2 1.68,0.21 0.64,0.17 0.23,0.15 0.35,0.37 0.74,0.38 0.7,0.47 0.28,0.08 0.28,-0.12 0.12,-0.23 0.29,-0.9 0.24,-0.14 h 0.24 l 0.3,0.09 h 0.29 l 0.07,-0.7 0.15,-0.26 1.27,0.12 0.25,-0.06 0.19,-0.2 0.07,-1 v -1.22 l -0.11,-1.22 -0.16,-1.16 -0.29,-1 -0.22,-0.53 -0.29,-0.43 -0.63,-0.49 -0.55,-0.21 -1.72,-0.29 -0.31,-0.11 -0.58,-0.47 -0.16,-0.23 -0.17,-0.78 -0.14,-1.54 0.31,-2.69 -2,-0.77 0.23,-1.16 3.65,0.21 0.21,-0.82 -1.22,-0.4 0.1,-2.1 -1,-1.55 -1.12,-1.22 0.41,-0.71 -4.57,-0.71 a 2.77,2.77 0 0 1 -1,-0.4 1.38,1.38 0 0 1 0,-1.73 c 0.41,-0.61 -0.71,-0.81 -0.71,-0.81 l 0.2,-1.32 -2.53,0.1 0.51,-1.31 -1.53,-0.31 -0.6,1.83 -1.22,-0.1 -0.31,-1.73 a 5.41,5.41 0 0 0 -1.11,1.32 c -0.2,0.51 -0.51,1.52 -0.51,1.52 a 13.39,13.39 0 0 0 -1.93,-0.2 c -0.81,0 -0.81,0.4 -0.81,1 0,0.6 -0.5,0.51 -1.21,0.61 -0.71,0.1 -1.22,-0.2 -1.32,-0.61 -0.1,-0.41 0.5,-0.61 1,-0.61 0.5,0 0.31,-0.6 0.1,-1.62 -0.21,-1.02 -0.61,-0.51 -1.21,-0.51 a 3.9,3.9 0 0 0 -1.63,0.82 h -1.52 l -0.2,-2.44 3.65,-1.72 -1.42,-0.11 -0.1,-1.42 -1.83,-1.82 -0.91,0.3 -1.93,-2.63 2.84,-2.74 -0.1,-2.13 1.32,-0.61 -0.1,-2.23 -0.61,-0.61 0.2,-1 -2.53,-0.3 -0.61,0.81 -2.54,-2.13 -0.1,-1.83 c 0,0 -1.62,0.21 -2.23,0.31 a 2.62,2.62 0 0 1 -1.93,-0.2 2.17,2.17 0 0 1 -0.81,-1.93 c 0,-0.81 -1.42,-2.13 -1.42,-2.13 l 1.32,-4.26 -0.71,-0.71 -2.64,-1.12 0.41,-0.91 -2.58,-0.33 -1.72,-0.52 -0.78,-2.19 -2,-1 a 1.52,1.52 0 0 1 -1.42,0.1 c -0.92,-0.3 -1,-1.52 -1,-1.52 l -1.32,-0.1 -1.39,1.99 0.71,0.41 -1,1.21 -1.12,0.41 -0.81,-0.61 a 1.9,1.9 0 0 0 -1.52,-0.3 c -1.11,0.1 -1.32,1.72 -1.32,1.72 l -2.64,0.3 -2.43,-1.42 -1.22,1.63 a 3.54,3.54 0 0 1 -2,1 l -1.62,-1.42 0.2,-1 H 1089 l 0.4,-1.42 c 0,0 -1.72,0 -2.63,-0.1 a 34.06,34.06 0 0 1 -4.77,-2 l 0.3,-1.93 -2.74,-0.81 -0.5,-0.91 -1.42,1.31 h -1.93 l -0.1,-0.81 -2.23,0.61 -2.34,-1.32 v -1.11 l -1.11,-0.61 c -0.71,-0.41 0.51,-1.63 0.51,-1.63 l -2,-0.62"
       class="cls-5"
       data-name="Voivodeships borders"
       id="Voivodeships_borders" />
  </g>
</svg>
